<?xml version="1.0" encoding="utf-8"?>
<!-- Generator: Adobe Illustrator 18.0.0, SVG Export Plug-In . SVG Version: 6.00 Build 0)  -->
<!DOCTYPE svg PUBLIC "-//W3C//DTD SVG 1.1//EN" "http://www.w3.org/Graphics/SVG/1.1/DTD/svg11.dtd">
<svg version="1.1" id="Layer_1" xmlns="http://www.w3.org/2000/svg" xmlns:xlink="http://www.w3.org/1999/xlink" x="0px" y="0px"
	 viewBox="0 0 15 15" enable-background="new 0 0 15 15" xml:space="preserve">
<path fill="#008640" d="M0.8,5.8v6.7c0,0.4,0.4,0.8,0.8,0.8h2.5V5H1.6C1.1,5,0.8,5.3,0.8,5.8z"/>
<path fill="#008640" d="M12.7,5.8h-2.5c-0.2,0-0.3-0.2-0.4-0.2c0-0.1-0.1-0.2,0-0.4l0.9-1.6c0.2-0.4,0.2-0.8,0-1.1s-0.5-0.6-0.8-0.7
	L9.3,1.6c-0.2,0-0.3,0-0.4,0.1L5.5,5.5C5.2,5.9,5,6.3,5,6.9v4.4c0,1.2,0.9,2.1,2.1,2.1h4.2c0.9,0,1.8-0.6,2-1.5l0.9-4.1
	c0-0.1,0-0.2,0-0.4C14.2,6.5,13.5,5.8,12.7,5.8L12.7,5.8z"/>
</svg>
