<?xml version="1.0" encoding="utf-8"?>
<!-- Generator: Adobe Illustrator 18.0.0, SVG Export Plug-In . SVG Version: 6.00 Build 0)  -->
<!DOCTYPE svg PUBLIC "-//W3C//DTD SVG 1.1//EN" "http://www.w3.org/Graphics/SVG/1.1/DTD/svg11.dtd">
<svg version="1.1" xmlns="http://www.w3.org/2000/svg" xmlns:xlink="http://www.w3.org/1999/xlink" x="0px" y="0px"
	 viewBox="0 476 595.3 368.2" enable-background="new 0 476 595.3 368.2" xml:space="preserve">
<g id="Layer_2" display="none">
	<rect y="0" display="inline" stroke="#FFFFFF" stroke-miterlimit="10" width="595.3" height="841.9"/>
</g>
<g id="Layer_1">
	<g>
		<g id="Outer_pitch_green">
			<g enable-background="new    ">
				<g>
					<g>
						<defs>
							<polygon id="SVGID_1_" points="0.5,844.2 108.2,483.9 487.1,483.9 594.8,844.2 							"/>
						</defs>
						<clipPath id="SVGID_2_">
							<use xlink:href="#SVGID_1_"  overflow="visible"/>
						</clipPath>
						<g clip-path="url(#SVGID_2_)">
							<polyline fill="#01BA5C" points="487.1,483.9 108.2,483.9 0.5,844.2 594.8,844.2 487.1,483.9 							"/>
						</g>
					</g>
				</g>
			</g>
		</g>
		<g>
			<g>
				<g>
					<g>
						<defs>
							<polygon id="SVGID_3_" points="10.1,844 110.8,499.5 483.5,499.5 584.2,844 							"/>
						</defs>
						<clipPath id="SVGID_4_">
							<use xlink:href="#SVGID_3_"  overflow="visible"/>
						</clipPath>
						<g clip-path="url(#SVGID_4_)">
							<g>
								<g>
									<g>
										<defs>
											<polyline id="SVGID_5_" points="110.8,499.5 10.1,844 584.2,844 483.5,499.5 110.8,499.5 											"/>
										</defs>
										<clipPath id="SVGID_6_">
											<use xlink:href="#SVGID_5_"  overflow="visible"/>
										</clipPath>
										<path clip-path="url(#SVGID_6_)" fill="#00AE55" d="M297.4,702.6c-13.5,0-26.4,2.1-38.3,6.1c-12,3.9-23.1,9.7-32.7,17
											c-9.8,7.4-18.1,16.3-24.3,26.5c-6.4,10.4-10.7,22.1-12.2,34.7c-0.6,5-0.7,10.1-0.4,15c0.3,5,1.1,9.9,2.4,14.7
											c1.2,4.9,2.9,9.6,5,14.2c2.1,4.6,4.7,9.1,7.6,13.3h76.5c-2.9-0.7-5.7-1.5-8.4-2.5c-2.7-1-5.4-2.2-7.9-3.5
											c-2.5-1.4-5-2.8-7.3-4.5c-2.3-1.7-4.5-3.4-6.6-5.4c-3-2.9-5.7-5.9-7.9-9.2c-2.2-3.2-4.1-6.6-5.5-10.1
											c-1.4-3.5-2.4-7.1-3-10.8c-0.6-3.7-0.7-7.4-0.5-11.1c0.2-3.7,0.9-7.4,2-10.9c1-3.5,2.5-6.9,4.2-10.1
											c1.8-3.2,3.9-6.2,6.3-9.1c2.4-2.8,5.2-5.5,8.2-7.9c3-2.4,6.1-4.5,9.5-6.3c3.3-1.8,6.8-3.3,10.4-4.5
											c3.6-1.2,7.3-2.1,11.1-2.8c3.8-0.6,7.7-0.9,11.7-0.9s7.9,0.3,11.7,0.9c3.8,0.6,7.6,1.5,11.2,2.8c3.6,1.2,7.1,2.7,10.4,4.5
											c3.3,1.8,6.5,3.9,9.5,6.3c3.1,2.4,5.8,5.1,8.2,7.9c2.4,2.8,4.5,5.9,6.3,9.1c1.8,3.2,3.2,6.6,4.2,10.1
											c1,3.5,1.7,7.1,2,10.9c0.2,3.7,0.1,7.5-0.5,11.1c-0.6,3.7-1.6,7.3-3,10.8c-1.4,3.5-3.3,6.9-5.5,10.1
											c-2.2,3.3-4.9,6.3-7.9,9.2c-2,1.9-4.2,3.7-6.6,5.4c-2.3,1.7-4.7,3.1-7.3,4.5c-2.5,1.4-5.2,2.5-7.9,3.5
											c-2.7,1-5.5,1.8-8.4,2.5h76.5c2.9-4.3,5.5-8.7,7.6-13.3c2.1-4.6,3.8-9.3,5-14.2c1.2-4.8,2-9.7,2.3-14.7
											c0.3-4.9,0.2-9.9-0.4-15c-1.5-12.6-5.8-24.3-12.2-34.7c-6.3-10.2-14.6-19.1-24.3-26.5c-9.6-7.2-20.7-13-32.7-17
											C323.8,704.7,311,702.6,297.4,702.6"/>
									</g>
									<g id="Mow_lines_clipped">
										<g>
											<defs>
												<polyline id="SVGID_7_" points="110.8,499.5 10.1,844 584.2,844 483.5,499.5 110.8,499.5 												"/>
											</defs>
											<clipPath id="SVGID_8_">
												<use xlink:href="#SVGID_7_"  overflow="visible"/>
											</clipPath>
											<path clip-path="url(#SVGID_8_)" fill="#00AE55" d="M297.4,645.1c-22.7,0-44.5,3.4-64.7,9.5
												c-20.6,6.3-39.8,15.5-56.9,27.3c-17.6,12.1-33,26.9-45.3,44.1c-12.8,17.8-22.3,38.3-27,60.9c-1,4.7-1.8,9.5-2.3,14.2
												c-0.6,4.8-0.9,9.5-1,14.3c-0.1,4.8,0.1,9.6,0.4,14.4c0.4,4.8,1,9.6,1.8,14.3h50c-0.1-0.3-0.2-0.6-0.3-0.8
												s-0.2-0.6-0.3-0.8c-0.1-0.3-0.2-0.6-0.3-0.8c-0.1-0.3-0.2-0.6-0.3-0.8c-1.4-4.5-2.5-9-3.4-13.5c-0.9-4.5-1.4-9-1.7-13.5
												c-0.3-4.5-0.4-9-0.1-13.4c0.2-4.4,0.7-8.9,1.4-13.3c0.7-4.4,1.7-8.7,2.8-13c1.2-4.2,2.6-8.3,4.2-12.4
												c1.6-4,3.4-7.9,5.4-11.8c2-3.8,4.2-7.5,6.6-11.2c2.3-3.5,4.8-6.8,7.4-10.1c2.6-3.2,5.4-6.3,8.3-9.3
												c2.9-2.9,5.9-5.8,9.1-8.5c3.2-2.7,6.5-5.3,9.9-7.8c3.4-2.5,6.9-4.8,10.5-6.9c3.6-2.1,7.2-4.2,11-6
												c3.7-1.8,7.5-3.6,11.4-5.1c3.9-1.6,7.8-3,11.9-4.2c4.1-1.3,8.3-2.5,12.5-3.4c4.2-1,8.5-1.8,12.8-2.5
												c4.3-0.7,8.6-1.1,13-1.5c4.4-0.3,8.7-0.5,13.1-0.5s8.8,0.2,13.1,0.5c4.4,0.3,8.7,0.8,13,1.5c4.3,0.7,8.5,1.5,12.8,2.5
												s8.4,2.1,12.5,3.4c4,1.3,8,2.7,11.9,4.2c3.9,1.6,7.7,3.3,11.4,5.1c3.7,1.9,7.4,3.9,11,6c3.6,2.1,7.1,4.5,10.5,6.9
												c3.4,2.5,6.8,5.1,9.9,7.8c3.2,2.7,6.2,5.6,9.1,8.5c2.9,3,5.7,6.1,8.3,9.3c2.6,3.2,5.1,6.6,7.4,10.1
												c2.4,3.6,4.6,7.4,6.6,11.2c2,3.8,3.8,7.7,5.4,11.8c1.6,4.1,3,8.2,4.2,12.4c1.2,4.2,2.1,8.6,2.8,13
												c0.7,4.4,1.2,8.9,1.4,13.3c0.2,4.5,0.2,9-0.1,13.4c-0.3,4.5-0.9,9-1.7,13.5c-0.9,4.5-2,9-3.4,13.5
												c-0.1,0.3-0.2,0.6-0.3,0.8c-0.1,0.3-0.2,0.6-0.3,0.8c-0.1,0.3-0.2,0.6-0.3,0.8c-0.1,0.3-0.2,0.6-0.3,0.8h50
												c0.8-4.7,1.4-9.5,1.8-14.3c0.4-4.8,0.5-9.5,0.4-14.4c-0.1-4.8-0.4-9.5-1-14.3c-0.6-4.7-1.3-9.5-2.3-14.2
												c-4.7-22.5-14.2-43-27-60.9c-12.3-17.1-27.8-32-45.4-44.1c-17.1-11.7-36.3-21-56.9-27.3
												C341.9,648.5,320.1,645.1,297.4,645.1"/>
										</g>
										<g enable-background="new    ">
											<g>
												<defs>
													<polyline id="SVGID_9_" points="110.8,499.5 10.1,844 584.2,844 483.5,499.5 110.8,499.5 													"/>
												</defs>
												<clipPath id="SVGID_10_">
													<use xlink:href="#SVGID_9_"  overflow="visible"/>
												</clipPath>
												<path clip-path="url(#SVGID_10_)" fill="#00AE55" d="M297.4,595c-25.6,0-50.5,3-74,8.5c-23.9,5.6-46.9,14-68.2,24.7
													c-22,11.1-42.6,24.8-61,40.9c-19.2,16.8-36.2,36.2-50,58.2L10.1,844h45.1c-0.2-4.9-0.3-9.8-0.2-14.6
													c0.1-4.8,0.4-9.6,1-14.4c0.5-4.7,1.2-9.5,2-14.2c0.8-4.7,1.8-9.3,3-13.9c1.8-6.9,3.9-13.6,6.3-20.2
													c2.4-6.5,5.1-12.8,8.2-19c3-6.1,6.3-12,9.9-17.8c3.6-5.7,7.4-11.2,11.5-16.6c2-2.6,4-5.1,6.1-7.6
													c2.1-2.5,4.2-4.9,6.4-7.3c2.2-2.4,4.4-4.7,6.7-7c2.3-2.3,4.6-4.5,7-6.7c2.3-2.1,4.7-4.2,7.2-6.3c2.4-2,4.9-4.1,7.4-6
													c2.5-1.9,5-3.8,7.6-5.7c2.6-1.8,5.2-3.6,7.8-5.3c2.6-1.7,5.3-3.4,8-5c2.7-1.6,5.4-3.2,8.2-4.7c2.7-1.5,5.5-3,8.3-4.4
													c2.8-1.4,5.6-2.8,8.4-4.1c2.8-1.3,5.7-2.6,8.6-3.8c2.9-1.2,5.8-2.4,8.8-3.5c2.9-1.1,5.9-2.1,8.8-3.1c3-1,6-1.9,8.9-2.8
													c6.2-1.8,12.4-3.4,18.7-4.8c6.3-1.4,12.6-2.5,18.9-3.4c6.3-0.9,12.7-1.6,19.2-2c6.4-0.4,12.9-0.7,19.4-0.7
													s13,0.2,19.4,0.7c6.4,0.4,12.8,1.1,19.2,2c6.3,0.9,12.6,2,18.9,3.4c6.3,1.4,12.5,2.9,18.7,4.8c3,0.9,6,1.8,8.9,2.8
													c3,1,5.9,2,8.8,3.1c2.9,1.1,5.9,2.3,8.8,3.5c2.9,1.2,5.8,2.5,8.6,3.8s5.6,2.7,8.4,4.1c2.8,1.4,5.6,2.9,8.3,4.4
													c2.8,1.5,5.5,3.1,8.2,4.7c2.7,1.6,5.4,3.3,8,5c2.6,1.7,5.2,3.5,7.8,5.3c2.6,1.8,5.1,3.7,7.6,5.7c2.5,2,5,3.9,7.4,6
													c2.4,2,4.8,4.2,7.2,6.3c2.4,2.2,4.7,4.4,7,6.7c2.3,2.3,4.5,4.6,6.7,7c2.2,2.4,4.3,4.8,6.4,7.3c2.1,2.5,4.1,5,6.1,7.6
													c4.1,5.4,8,10.9,11.6,16.6c3.6,5.8,6.9,11.7,9.9,17.8c3.1,6.2,5.8,12.5,8.2,19c2.5,6.6,4.5,13.3,6.3,20.2
													c1.2,4.6,2.2,9.3,3,13.9c0.9,4.7,1.5,9.5,2,14.2c0.5,4.8,0.8,9.6,1,14.4c0.1,4.9,0.1,9.8-0.1,14.6h44.3l-34.6-118.5
													c-13.9-21.6-30.9-40.8-50-57.4c-18.4-15.9-38.9-29.4-60.7-40.3c-21.3-10.6-44.1-18.9-67.9-24.4
													C347.5,598,322.9,595,297.4,595"/>
											</g>
											<g>
												<g>
													<defs>
														<polyline id="SVGID_11_" points="110.8,499.5 10.1,844 584.2,844 483.5,499.5 110.8,499.5 														"/>
													</defs>
													<clipPath id="SVGID_12_">
														<use xlink:href="#SVGID_11_"  overflow="visible"/>
													</clipPath>
													<path clip-path="url(#SVGID_12_)" fill="#00AE55" d="M297.4,550.9c-20,0-39.5,1.4-58.5,4c-19.2,2.6-37.9,6.6-56.1,11.7
														c-18.5,5.2-36.5,11.7-53.9,19.3c-17.7,7.8-35,16.9-51.4,27.2l-12.5,42.7c0.3-0.2,0.6-0.5,0.9-0.7
														c0.3-0.2,0.6-0.5,0.9-0.7c0.3-0.2,0.6-0.5,0.9-0.7c0.3-0.2,0.6-0.5,0.9-0.7c3.3-2.7,6.6-5.3,9.9-7.9
														c3.3-2.6,6.7-5.1,10.2-7.5c3.4-2.4,6.9-4.8,10.4-7.1c3.5-2.3,7-4.5,10.6-6.6c3.5-2.1,7.1-4.2,10.7-6.2
														c3.6-2,7.2-3.9,10.9-5.8c3.6-1.9,7.3-3.7,11-5.4c3.7-1.7,7.4-3.4,11.1-5c3.7-1.6,7.6-3.1,11.4-4.6
														c3.8-1.5,7.6-2.9,11.5-4.2c3.8-1.3,7.7-2.6,11.5-3.8c3.9-1.2,7.7-2.3,11.6-3.4c3.9-1.1,7.9-2.1,11.9-3.1
														c4-0.9,8-1.8,12-2.6s8-1.6,12-2.2c4-0.7,8-1.3,12.1-1.8c4.1-0.6,8.3-1,12.5-1.5c4.2-0.4,8.3-0.8,12.5-1
														c4.2-0.3,8.4-0.5,12.6-0.6s8.4-0.2,12.6-0.2s8.4,0.1,12.6,0.2s8.4,0.4,12.6,0.6c4.2,0.3,8.4,0.6,12.5,1
														s8.3,0.9,12.5,1.5c4,0.6,8,1.2,12.1,1.8c4,0.7,8,1.4,12,2.2c4,0.8,8,1.7,12,2.6s8,2,11.9,3.1c3.9,1.1,7.8,2.2,11.6,3.4
														c3.9,1.2,7.7,2.5,11.5,3.8c3.9,1.4,7.7,2.8,11.5,4.2c3.8,1.5,7.6,3,11.4,4.6c3.7,1.6,7.5,3.3,11.2,5
														c3.7,1.7,7.4,3.5,11,5.4c3.7,1.9,7.3,3.8,10.9,5.8c3.6,2,7.2,4.1,10.7,6.2c3.6,2.1,7.1,4.4,10.6,6.6
														c3.5,2.3,7,4.7,10.4,7.1c3.4,2.4,6.8,4.9,10.2,7.5c3.4,2.6,6.7,5.2,9.9,7.9c0.2,0.2,0.4,0.4,0.7,0.6
														c0.2,0.2,0.4,0.4,0.7,0.6c0.2,0.2,0.4,0.4,0.7,0.6c0.2,0.2,0.4,0.4,0.7,0.6l-12.4-42.5c-16.4-10.2-33.6-19.2-51.3-27
														c-17.3-7.6-35.3-14-53.7-19.2c-18.1-5.1-36.8-9-55.9-11.7C336.8,552.3,317.3,550.9,297.4,550.9"/>
												</g>
												<g>
													<g>
														<defs>
															<polyline id="SVGID_13_" points="110.8,499.5 10.1,844 584.2,844 483.5,499.5 110.8,499.5 															"/>
														</defs>
														<clipPath id="SVGID_14_">
															<use xlink:href="#SVGID_13_"  overflow="visible"/>
														</clipPath>
														<path clip-path="url(#SVGID_14_)" fill="#00AE55" d="M297.4,511.8c-17.8,0-35.4,0.9-52.6,2.6
															c-17.3,1.7-34.3,4.3-51,7.7c-16.9,3.4-33.5,7.6-49.8,12.6c-16.5,5.1-32.8,11-48.8,17.7l-8.2,28c3-1.5,6.1-3,9.1-4.5
															c3.1-1.5,6.1-2.9,9.2-4.3c3.1-1.4,6.1-2.7,9.2-4s6.1-2.6,9.3-3.8c4.6-1.8,9.2-3.6,13.9-5.3c4.6-1.7,9.3-3.3,13.9-4.8
															c4.7-1.5,9.3-2.9,14-4.3c4.7-1.4,9.3-2.6,14.1-3.9c4.8-1.2,9.5-2.4,14.3-3.4c4.8-1.1,9.6-2.1,14.4-3
															c4.8-0.9,9.6-1.8,14.4-2.5c4.8-0.8,9.6-1.5,14.5-2.1c4.9-0.6,9.9-1.2,14.9-1.7c5-0.5,10-0.9,15-1.2
															c5-0.3,10-0.6,15-0.7c5-0.2,10-0.2,15-0.2s10,0.1,15,0.2c5,0.2,10,0.4,15,0.7c5,0.3,10,0.7,15,1.2
															c5,0.5,9.9,1,14.9,1.7c4.8,0.6,9.6,1.3,14.5,2.1c4.8,0.8,9.6,1.6,14.4,2.5c4.8,0.9,9.6,1.9,14.4,3
															c4.8,1.1,9.6,2.2,14.4,3.4c4.7,1.2,9.4,2.5,14.1,3.9c4.7,1.4,9.4,2.8,14,4.3c4.7,1.5,9.3,3.1,13.9,4.8
															c4.7,1.7,9.3,3.4,13.9,5.3c3,1.2,6.1,2.5,9.1,3.7c3,1.3,6.1,2.6,9.1,4c3,1.4,6,2.8,9,4.2c3,1.4,6,2.9,9,4.4l-8.2-27.9
															c-15.9-6.7-32.1-12.5-48.6-17.6c-16.3-5-32.8-9.2-49.7-12.5c-16.6-3.3-33.6-5.9-50.8-7.6
															C332.6,512.7,315.2,511.8,297.4,511.8"/>
													</g>
													<g>
														<g>
															<defs>
																<polyline id="SVGID_15_" points="110.8,499.5 10.1,844 584.2,844 483.5,499.5 110.8,499.5 																"/>
															</defs>
															<clipPath id="SVGID_16_">
																<use xlink:href="#SVGID_15_"  overflow="visible"/>
															</clipPath>
															<path clip-path="url(#SVGID_16_)" fill="#00AE55" d="M217,499.5h-86.2c-1.8,0.5-3.7,1-5.5,1.5s-3.7,1-5.5,1.6
																c-1.8,0.6-3.7,1.1-5.5,1.7c-1.8,0.6-3.7,1.1-5.5,1.7l-6.4,22c5-1.8,9.9-3.5,14.9-5.2c5-1.7,10-3.2,15-4.7
																s10-2.9,15-4.3c5-1.4,10-2.6,15-3.9c4.5-1.1,9.1-2.1,13.6-3.1c4.5-1,9.1-1.9,13.7-2.8c4.5-0.9,9.1-1.7,13.7-2.5
																C207.9,500.8,212.5,500.1,217,499.5 M463.9,499.5h-86.2c4.6,0.6,9.1,1.4,13.7,2.1c4.6,0.8,9.1,1.6,13.7,2.5
																c4.6,0.9,9.1,1.8,13.7,2.8c4.6,1,9.1,2,13.6,3.1c5,1.2,9.9,2.5,14.9,3.8c5,1.4,9.9,2.8,14.9,4.2
																c5,1.5,9.9,3.1,14.9,4.7c5,1.7,9.9,3.4,14.8,5.1l-6.4-22c-1.8-0.6-3.6-1.1-5.3-1.7c-1.8-0.6-3.6-1.1-5.4-1.6
																c-1.8-0.5-3.6-1-5.4-1.6C467.5,500.5,465.7,500,463.9,499.5"/>
														</g>
													</g>
												</g>
											</g>
										</g>
									</g>
									<g>
										<g id="Pitch_Layers_1_">
											<g id="Pitch_Markings">
												<g enable-background="new    ">
													<defs>
														<polygon id="SVGID_17_" enable-background="new    " points="10.4,844.2 111,499.6 483.8,499.6 584.4,844.2 
																													"/>
													</defs>
													<clipPath id="SVGID_18_">
														<use xlink:href="#SVGID_17_"  overflow="visible"/>
													</clipPath>
													<g clip-path="url(#SVGID_18_)">
														<g>
															<g>
																<g>
																	<defs>
																		<polyline id="SVGID_19_" points="111,499.6 10.4,844.2 584.4,844.2 483.8,499.6 111,499.6 																		"/>
																	</defs>
																	<clipPath id="SVGID_20_">
																		<use xlink:href="#SVGID_19_"  overflow="visible"/>
																	</clipPath>
																	<path clip-path="url(#SVGID_20_)" fill="#FFFFFF" d="M483.8,499.6H111L10.4,844.2h2.2l16.3-56.4h202.7
																		c-0.3,6.3,0.6,12.3,2.5,18.1c1.9,5.8,4.9,11.3,8.8,16.3c3.9,5,8.8,9.5,14.3,13.2c5.6,3.7,11.9,6.8,18.8,8.8h10.2
																		c-7.8-1.2-15.1-3.7-21.7-7.2c-6.5-3.4-12.2-7.8-16.9-12.9c-4.6-5-8.2-10.8-10.6-17c-2.3-6.1-3.4-12.6-3.1-19.3
																		h56.4c0.1,0.7,0.4,1.5,0.8,2.1s1,1.2,1.6,1.7c0.6,0.5,1.4,0.9,2.2,1.1s1.7,0.4,2.6,0.4c0.9,0,1.8-0.1,2.6-0.4
																		s1.5-0.6,2.2-1.1c0.6-0.5,1.2-1,1.6-1.7c0.4-0.6,0.7-1.4,0.8-2.1h56.4c0.3,6.7-0.8,13.3-3.1,19.3
																		c-2.3,6.2-5.9,11.9-10.6,17c-4.7,5.1-10.4,9.5-16.8,12.9c-6.5,3.4-13.9,5.9-21.7,7.2h10.2
																		c6.9-2.1,13.2-5.1,18.8-8.8c5.6-3.7,10.4-8.2,14.3-13.2c3.9-5,6.9-10.4,8.8-16.3c1.9-5.8,2.8-11.9,2.5-18.1h202.7
																		l16.4,56.4h1.9L483.8,499.6z M482.8,500.4l2.3,8.1c-1.8-0.1-3.6-0.4-5.3-0.8c-1.7-0.4-3.3-1-4.7-1.8
																		s-2.6-1.6-3.6-2.5c-1-0.9-1.7-1.9-2.2-3L482.8,500.4L482.8,500.4z M251.2,500.4h92.5l1,13.6h-94.5L251.2,500.4z
																		 M249.6,500.4l-1.1,14.6h97.9l-1.1-14.6h35.8l3.6,27.1H210.2l3.6-27.1H249.6L249.6,500.4z M329.5,528.5
																		c-1.2,2-2.9,3.9-5,5.6c-2.1,1.7-4.6,3.1-7.4,4.4c-2.8,1.2-5.9,2.2-9.2,2.8s-6.8,1-10.4,1s-7.1-0.4-10.4-1
																		c-3.3-0.7-6.4-1.6-9.2-2.8c-2.8-1.2-5.3-2.7-7.4-4.4c-2.1-1.7-3.8-3.6-5-5.6H329.5L329.5,528.5z M112.2,500.4h13.5
																		c-0.4,1.1-1.2,2.1-2.2,3c-1,0.9-2.2,1.8-3.6,2.5c-1.4,0.7-3,1.3-4.7,1.8c-1.7,0.4-3.5,0.7-5.3,0.8L112.2,500.4z
																		 M304.7,785.8c-0.1-0.7-0.4-1.4-0.9-2.1c-0.4-0.6-1-1.2-1.6-1.7c-0.6-0.5-1.4-0.8-2.1-1.1
																		c-0.8-0.2-1.7-0.4-2.5-0.4s-1.8,0.1-2.5,0.4c-0.8,0.2-1.5,0.6-2.1,1.1c-0.6,0.5-1.2,1-1.6,1.7
																		c-0.4,0.6-0.7,1.3-0.9,2.1h-56.4c0.7-7.4,3-14.3,6.6-20.5c3.6-6.1,8.4-11.5,14.1-16c5.7-4.5,12.3-8,19.5-10.5
																		c7.2-2.5,15-3.8,23.2-3.8s16,1.4,23.2,3.8c7.2,2.5,13.8,6,19.5,10.5c5.8,4.5,10.6,9.9,14.1,16
																		c3.6,6.2,6,13.1,6.6,20.5H304.7z M363.4,785.8c-0.7-7.6-3.1-14.8-6.9-21.2c-3.7-6.3-8.7-11.9-14.7-16.6
																		c-5.9-4.6-12.8-8.3-20.3-10.8c-7.4-2.5-15.5-3.9-24-3.9c-8.5,0-16.6,1.4-24,3.9c-7.5,2.5-14.3,6.2-20.3,10.8
																		c-6,4.7-11,10.3-14.7,16.6c-3.7,6.4-6.2,13.6-6.9,21.2H29.5l80.1-276.3c2.1-0.1,4.1-0.4,6-0.9s3.7-1.2,5.3-2
																		c1.6-0.8,3-1.8,4.1-2.8c1.1-1,1.9-2.2,2.4-3.4h84.8l-3.7,28.1h55.2c1.2,2.2,2.9,4.2,5.1,6c2.2,1.8,4.8,3.4,7.8,4.7
																		c3,1.3,6.3,2.4,9.8,3.1s7.3,1.1,11.1,1.1s7.6-0.4,11.1-1.1c3.5-0.7,6.8-1.8,9.8-3.1c3-1.3,5.6-2.9,7.8-4.7
																		c2.2-1.8,3.9-3.8,5.1-6h55.2l-3.7-28.1h84.8c0.5,1.2,1.3,2.3,2.4,3.4c1.1,1,2.5,2,4.1,2.8s3.4,1.5,5.3,2
																		c1.9,0.5,3.9,0.8,6,0.9l80.2,276.3H363.4z"/>
																</g>
															</g>
														</g>
													</g>
												</g>
											</g>
										</g>
										<g id="Goal_1_">
											<g id="Goal_shad_1_" opacity="0.102">
												<g>
													<polygon points="245.8,483.9 254.1,499.6 340.9,499.6 349.2,483.9 													"/>
												</g>
											</g>
											<g id="NET_2_">
												<g>
													<g>
														<defs>
															<rect id="SVGID_21_" x="255.6" y="468.7" width="83.9" height="31.7"/>
														</defs>
														<clipPath id="SVGID_22_">
															<use xlink:href="#SVGID_21_"  overflow="visible"/>
														</clipPath>
														<g clip-path="url(#SVGID_22_)">
															<g>
																<path fill="#CECECE" d="M255.7,463l2.5,1.4v2.7l-2.5,1.4l-2.5-1.4v-2.7L255.7,463 M255.7,462.7l-2.8,1.5v3l2.8,1.5
																	l2.8-1.5v-3L255.7,462.7L255.7,462.7z"/>
															</g>
															<g>
																<path fill="#CECECE" d="M261,463l2.5,1.4v2.7l-2.5,1.4l-2.5-1.4v-2.7L261,463 M261,462.7l-2.8,1.5v3l2.8,1.5
																	l2.8-1.5v-3L261,462.7L261,462.7z"/>
															</g>
															<g>
																<path fill="#CECECE" d="M266.2,463l2.5,1.4v2.7l-2.5,1.4l-2.5-1.4v-2.7L266.2,463 M266.2,462.7l-2.8,1.5v3l2.8,1.5
																	l2.8-1.5v-3L266.2,462.7L266.2,462.7z"/>
															</g>
															<g>
																<path fill="#CECECE" d="M271.5,463l2.5,1.4v2.7l-2.5,1.4l-2.5-1.4v-2.7L271.5,463 M271.5,462.7l-2.8,1.5v3l2.8,1.5
																	l2.8-1.5v-3L271.5,462.7L271.5,462.7z"/>
															</g>
															<g>
																<path fill="#CECECE" d="M276.7,463l2.5,1.4v2.7l-2.5,1.4l-2.5-1.4v-2.7L276.7,463 M276.7,462.7l-2.8,1.5v3l2.8,1.5
																	l2.8-1.5v-3L276.7,462.7L276.7,462.7z"/>
															</g>
															<g>
																<path fill="#CECECE" d="M281.9,463l2.5,1.4v2.7l-2.5,1.4l-2.5-1.4v-2.7L281.9,463 M281.9,462.7l-2.8,1.5v3l2.8,1.5
																	l2.8-1.5v-3L281.9,462.7L281.9,462.7z"/>
															</g>
															<g>
																<path fill="#CECECE" d="M287.2,463l2.5,1.4v2.7l-2.5,1.4l-2.5-1.4v-2.7L287.2,463 M287.2,462.7l-2.8,1.5v3l2.8,1.5
																	l2.8-1.5v-3L287.2,462.7L287.2,462.7z"/>
															</g>
															<g>
																<path fill="#CECECE" d="M292.4,463l2.5,1.4v2.7l-2.5,1.4l-2.5-1.4v-2.7L292.4,463 M292.4,462.7l-2.8,1.5v3l2.8,1.5
																	l2.8-1.5v-3L292.4,462.7L292.4,462.7z"/>
															</g>
															<g>
																<path fill="#CECECE" d="M297.6,463l2.5,1.4v2.7l-2.5,1.4l-2.5-1.4v-2.7L297.6,463 M297.6,462.7l-2.8,1.5v3l2.8,1.5
																	l2.8-1.5v-3L297.6,462.7L297.6,462.7z"/>
															</g>
															<g>
																<path fill="#CECECE" d="M302.9,463l2.5,1.4v2.7l-2.5,1.4l-2.5-1.4v-2.7L302.9,463 M302.9,462.7l-2.8,1.5v3l2.8,1.5
																	l2.8-1.5v-3L302.9,462.7L302.9,462.7z"/>
															</g>
															<g>
																<path fill="#CECECE" d="M308.1,463l2.5,1.4v2.7l-2.5,1.4l-2.5-1.4v-2.7L308.1,463 M308.1,462.7l-2.8,1.5v3l2.8,1.5
																	l2.8-1.5v-3L308.1,462.7L308.1,462.7z"/>
															</g>
															<g>
																<path fill="#CECECE" d="M313.3,463l2.5,1.4v2.7l-2.5,1.4l-2.5-1.4v-2.7L313.3,463 M313.3,462.7l-2.8,1.5v3l2.8,1.5
																	l2.8-1.5v-3L313.3,462.7L313.3,462.7z"/>
															</g>
															<g>
																<path fill="#CECECE" d="M318.6,463l2.5,1.4v2.7l-2.5,1.4l-2.5-1.4v-2.7L318.6,463 M318.6,462.7l-2.8,1.5v3l2.8,1.5
																	l2.8-1.5v-3L318.6,462.7L318.6,462.7z"/>
															</g>
															<g>
																<path fill="#CECECE" d="M323.8,463l2.5,1.4v2.7l-2.5,1.4l-2.5-1.4v-2.7L323.8,463 M323.8,462.7l-2.8,1.5v3l2.8,1.5
																	l2.8-1.5v-3L323.8,462.7L323.8,462.7z"/>
															</g>
															<g>
																<path fill="#CECECE" d="M329.1,463l2.5,1.4v2.7l-2.5,1.4l-2.5-1.4v-2.7L329.1,463 M329.1,462.7l-2.8,1.5v3l2.8,1.5
																	l2.8-1.5v-3L329.1,462.7L329.1,462.7z"/>
															</g>
															<g>
																<path fill="#CECECE" d="M334.3,463l2.5,1.4v2.7l-2.5,1.4l-2.5-1.4v-2.7L334.3,463 M334.3,462.7l-2.8,1.5v3l2.8,1.5
																	l2.8-1.5v-3L334.3,462.7L334.3,462.7z"/>
															</g>
															<g>
																<path fill="#CECECE" d="M339.5,463l2.5,1.4v2.7l-2.5,1.4l-2.5-1.4v-2.7L339.5,463 M339.5,462.7l-2.8,1.5v3l2.8,1.5
																	l2.8-1.5v-3L339.5,462.7L339.5,462.7z"/>
															</g>
															<g>
																<path fill="#CECECE" d="M344.8,463l2.5,1.4v2.7l-2.5,1.4l-2.5-1.4v-2.7L344.8,463 M344.8,462.7l-2.8,1.5v3l2.8,1.5
																	l2.8-1.5v-3L344.8,462.7L344.8,462.7z"/>
															</g>
															<g>
																<path fill="#CECECE" d="M350,463l2.5,1.4v2.7l-2.5,1.4l-2.5-1.4v-2.7L350,463 M350,462.7l-2.8,1.5v3l2.8,1.5
																	l2.8-1.5v-3L350,462.7L350,462.7z"/>
															</g>
															<g>
																<path fill="#CECECE" d="M355.2,463l2.5,1.4v2.7l-2.5,1.4l-2.5-1.4v-2.7L355.2,463 M355.2,462.7l-2.8,1.5v3l2.8,1.5
																	l2.8-1.5v-3L355.2,462.7L355.2,462.7z"/>
															</g>
														</g>
													</g>
												</g>
												<g>
													<g>
														<defs>
															<rect id="SVGID_23_" x="255.6" y="468.7" width="83.9" height="31.7"/>
														</defs>
														<clipPath id="SVGID_24_">
															<use xlink:href="#SVGID_23_"  overflow="visible"/>
														</clipPath>
														<g clip-path="url(#SVGID_24_)">
															<g>
																<path fill="#CECECE" d="M258.4,467.5l2.5,1.4v2.7l-2.5,1.4l-2.5-1.4v-2.7L258.4,467.5 M258.4,467.1l-2.8,1.5v3
																	l2.8,1.5l2.8-1.5v-3L258.4,467.1L258.4,467.1z"/>
															</g>
															<g>
																<path fill="#CECECE" d="M263.6,467.5l2.5,1.4v2.7l-2.5,1.4l-2.5-1.4v-2.7L263.6,467.5 M263.6,467.1l-2.8,1.5v3
																	l2.8,1.5l2.8-1.5v-3L263.6,467.1L263.6,467.1z"/>
															</g>
															<g>
																<path fill="#CECECE" d="M268.8,467.5l2.5,1.4v2.7l-2.5,1.4l-2.5-1.4v-2.7L268.8,467.5 M268.8,467.1l-2.8,1.5v3
																	l2.8,1.5l2.8-1.5v-3L268.8,467.1L268.8,467.1z"/>
															</g>
															<g>
																<path fill="#CECECE" d="M274.1,467.5l2.5,1.4v2.7l-2.5,1.4l-2.5-1.4v-2.7L274.1,467.5 M274.1,467.1l-2.8,1.5v3
																	l2.8,1.5l2.8-1.5v-3L274.1,467.1L274.1,467.1z"/>
															</g>
															<g>
																<path fill="#CECECE" d="M279.3,467.5l2.5,1.4v2.7l-2.5,1.4l-2.5-1.4v-2.7L279.3,467.5 M279.3,467.1l-2.8,1.5v3
																	l2.8,1.5l2.8-1.5v-3L279.3,467.1L279.3,467.1z"/>
															</g>
															<g>
																<path fill="#CECECE" d="M284.5,467.5l2.5,1.4v2.7l-2.5,1.4l-2.5-1.4v-2.7L284.5,467.5 M284.5,467.1l-2.8,1.5v3
																	l2.8,1.5l2.8-1.5v-3L284.5,467.1L284.5,467.1z"/>
															</g>
															<g>
																<path fill="#CECECE" d="M289.8,467.5l2.5,1.4v2.7l-2.5,1.4l-2.5-1.4v-2.7L289.8,467.5 M289.8,467.1l-2.8,1.5v3
																	l2.8,1.5l2.8-1.5v-3L289.8,467.1L289.8,467.1z"/>
															</g>
															<g>
																<path fill="#CECECE" d="M295,467.5l2.5,1.4v2.7l-2.5,1.4l-2.5-1.4v-2.7L295,467.5 M295,467.1l-2.8,1.5v3l2.8,1.5
																	l2.8-1.5v-3L295,467.1L295,467.1z"/>
															</g>
															<g>
																<path fill="#CECECE" d="M300.3,467.5l2.5,1.4v2.7l-2.5,1.4l-2.5-1.4v-2.7L300.3,467.5 M300.3,467.1l-2.8,1.5v3
																	l2.8,1.5l2.8-1.5v-3L300.3,467.1L300.3,467.1z"/>
															</g>
															<g>
																<path fill="#CECECE" d="M305.5,467.5l2.5,1.4v2.7l-2.5,1.4l-2.5-1.4v-2.7L305.5,467.5 M305.5,467.1l-2.8,1.5v3
																	l2.8,1.5l2.8-1.5v-3L305.5,467.1L305.5,467.1z"/>
															</g>
															<g>
																<path fill="#CECECE" d="M310.7,467.5l2.5,1.4v2.7l-2.5,1.4l-2.5-1.4v-2.7L310.7,467.5 M310.7,467.1l-2.8,1.5v3
																	l2.8,1.5l2.8-1.5v-3L310.7,467.1L310.7,467.1z"/>
															</g>
															<g>
																<path fill="#CECECE" d="M316,467.5l2.5,1.4v2.7l-2.5,1.4l-2.5-1.4v-2.7L316,467.5 M316,467.1l-2.8,1.5v3l2.8,1.5
																	l2.8-1.5v-3L316,467.1L316,467.1z"/>
															</g>
															<g>
																<path fill="#CECECE" d="M321.2,467.5l2.5,1.4v2.7l-2.5,1.4l-2.5-1.4v-2.7L321.2,467.5 M321.2,467.1l-2.8,1.5v3
																	l2.8,1.5l2.8-1.5v-3L321.2,467.1L321.2,467.1z"/>
															</g>
															<g>
																<path fill="#CECECE" d="M326.4,467.5l2.5,1.4v2.7l-2.5,1.4l-2.5-1.4v-2.7L326.4,467.5 M326.4,467.1l-2.8,1.5v3
																	l2.8,1.5l2.8-1.5v-3L326.4,467.1L326.4,467.1z"/>
															</g>
															<g>
																<path fill="#CECECE" d="M331.7,467.5l2.5,1.4v2.7l-2.5,1.4l-2.5-1.4v-2.7L331.7,467.5 M331.7,467.1l-2.8,1.5v3
																	l2.8,1.5l2.8-1.5v-3L331.7,467.1L331.7,467.1z"/>
															</g>
															<g>
																<path fill="#CECECE" d="M336.9,467.5l2.5,1.4v2.7l-2.5,1.4l-2.5-1.4v-2.7L336.9,467.5 M336.9,467.1l-2.8,1.5v3
																	l2.8,1.5l2.8-1.5v-3L336.9,467.1L336.9,467.1z"/>
															</g>
															<g>
																<path fill="#CECECE" d="M342.1,467.5l2.5,1.4v2.7l-2.5,1.4l-2.5-1.4v-2.7L342.1,467.5 M342.1,467.1l-2.8,1.5v3
																	l2.8,1.5l2.8-1.5v-3L342.1,467.1L342.1,467.1z"/>
															</g>
															<g>
																<path fill="#CECECE" d="M347.4,467.5l2.5,1.4v2.7l-2.5,1.4l-2.5-1.4v-2.7L347.4,467.5 M347.4,467.1l-2.8,1.5v3
																	l2.8,1.5l2.8-1.5v-3L347.4,467.1L347.4,467.1z"/>
															</g>
															<g>
																<path fill="#CECECE" d="M352.6,467.5l2.5,1.4v2.7l-2.5,1.4l-2.5-1.4v-2.7L352.6,467.5 M352.6,467.1l-2.8,1.5v3
																	l2.8,1.5l2.8-1.5v-3L352.6,467.1L352.6,467.1z"/>
															</g>
															<g>
																<path fill="#CECECE" d="M357.9,467.5l2.5,1.4v2.7l-2.5,1.4l-2.5-1.4v-2.7L357.9,467.5 M357.9,467.1l-2.8,1.5v3
																	l2.8,1.5l2.8-1.5v-3L357.9,467.1L357.9,467.1z"/>
															</g>
														</g>
													</g>
												</g>
												<g>
													<g>
														<defs>
															<rect id="SVGID_25_" x="255.6" y="468.7" width="83.9" height="31.7"/>
														</defs>
														<clipPath id="SVGID_26_">
															<use xlink:href="#SVGID_25_"  overflow="visible"/>
														</clipPath>
														<g clip-path="url(#SVGID_26_)">
															<g>
																<path fill="#CECECE" d="M255.7,471.9l2.5,1.4v2.7l-2.5,1.4l-2.5-1.4v-2.7L255.7,471.9 M255.7,471.6l-2.8,1.5v3
																	l2.8,1.5l2.8-1.5v-3L255.7,471.6L255.7,471.6z"/>
															</g>
															<g>
																<path fill="#CECECE" d="M261,471.9l2.5,1.4v2.7l-2.5,1.4l-2.5-1.4v-2.7L261,471.9 M261,471.6l-2.8,1.5v3l2.8,1.5
																	l2.8-1.5v-3L261,471.6L261,471.6z"/>
															</g>
															<g>
																<path fill="#CECECE" d="M266.2,471.9l2.5,1.4v2.7l-2.5,1.4l-2.5-1.4v-2.7L266.2,471.9 M266.2,471.6l-2.8,1.5v3
																	l2.8,1.5l2.8-1.5v-3L266.2,471.6L266.2,471.6z"/>
															</g>
															<g>
																<path fill="#CECECE" d="M271.5,471.9l2.5,1.4v2.7l-2.5,1.4L269,476v-2.7L271.5,471.9 M271.5,471.6l-2.8,1.5v3
																	l2.8,1.5l2.8-1.5v-3L271.5,471.6L271.5,471.6z"/>
															</g>
															<g>
																<path fill="#CECECE" d="M276.7,471.9l2.5,1.4v2.7l-2.5,1.4l-2.5-1.4v-2.7L276.7,471.9 M276.7,471.6l-2.8,1.5v3
																	l2.8,1.5l2.8-1.5v-3L276.7,471.6L276.7,471.6z"/>
															</g>
															<g>
																<path fill="#CECECE" d="M281.9,471.9l2.5,1.4v2.7l-2.5,1.4l-2.5-1.4v-2.7L281.9,471.9 M281.9,471.6l-2.8,1.5v3
																	l2.8,1.5l2.8-1.5v-3L281.9,471.6L281.9,471.6z"/>
															</g>
															<g>
																<path fill="#CECECE" d="M287.2,471.9l2.5,1.4v2.7l-2.5,1.4l-2.5-1.4v-2.7L287.2,471.9 M287.2,471.6l-2.8,1.5v3
																	l2.8,1.5l2.8-1.5v-3L287.2,471.6L287.2,471.6z"/>
															</g>
															<g>
																<path fill="#CECECE" d="M292.4,471.9l2.5,1.4v2.7l-2.5,1.4l-2.5-1.4v-2.7L292.4,471.9 M292.4,471.6l-2.8,1.5v3
																	l2.8,1.5l2.8-1.5v-3L292.4,471.6L292.4,471.6z"/>
															</g>
															<g>
																<path fill="#CECECE" d="M297.6,471.9l2.5,1.4v2.7l-2.5,1.4l-2.5-1.4v-2.7L297.6,471.9 M297.6,471.6l-2.8,1.5v3
																	l2.8,1.5l2.8-1.5v-3L297.6,471.6L297.6,471.6z"/>
															</g>
															<g>
																<path fill="#CECECE" d="M302.9,471.9l2.5,1.4v2.7l-2.5,1.4l-2.5-1.4v-2.7L302.9,471.9 M302.9,471.6l-2.8,1.5v3
																	l2.8,1.5l2.8-1.5v-3L302.9,471.6L302.9,471.6z"/>
															</g>
															<g>
																<path fill="#CECECE" d="M308.1,471.9l2.5,1.4v2.7l-2.5,1.4l-2.5-1.4v-2.7L308.1,471.9 M308.1,471.6l-2.8,1.5v3
																	l2.8,1.5l2.8-1.5v-3L308.1,471.6L308.1,471.6z"/>
															</g>
															<g>
																<path fill="#CECECE" d="M313.3,471.9l2.5,1.4v2.7l-2.5,1.4l-2.5-1.4v-2.7L313.3,471.9 M313.3,471.6l-2.8,1.5v3
																	l2.8,1.5l2.8-1.5v-3L313.3,471.6L313.3,471.6z"/>
															</g>
															<g>
																<path fill="#CECECE" d="M318.6,471.9l2.5,1.4v2.7l-2.5,1.4l-2.5-1.4v-2.7L318.6,471.9 M318.6,471.6l-2.8,1.5v3
																	l2.8,1.5l2.8-1.5v-3L318.6,471.6L318.6,471.6z"/>
															</g>
															<g>
																<path fill="#CECECE" d="M323.8,471.9l2.5,1.4v2.7l-2.5,1.4l-2.5-1.4v-2.7L323.8,471.9 M323.8,471.6l-2.8,1.5v3
																	l2.8,1.5l2.8-1.5v-3L323.8,471.6L323.8,471.6z"/>
															</g>
															<g>
																<path fill="#CECECE" d="M329.1,471.9l2.5,1.4v2.7l-2.5,1.4l-2.5-1.4v-2.7L329.1,471.9 M329.1,471.6l-2.8,1.5v3
																	l2.8,1.5l2.8-1.5v-3L329.1,471.6L329.1,471.6z"/>
															</g>
															<g>
																<path fill="#CECECE" d="M334.3,471.9l2.5,1.4v2.7l-2.5,1.4l-2.5-1.4v-2.7L334.3,471.9 M334.3,471.6l-2.8,1.5v3
																	l2.8,1.5l2.8-1.5v-3L334.3,471.6L334.3,471.6z"/>
															</g>
															<g>
																<path fill="#CECECE" d="M339.5,471.9l2.5,1.4v2.7l-2.5,1.4L337,476v-2.7L339.5,471.9 M339.5,471.6l-2.8,1.5v3
																	l2.8,1.5l2.8-1.5v-3L339.5,471.6L339.5,471.6z"/>
															</g>
															<g>
																<path fill="#CECECE" d="M344.8,471.9l2.5,1.4v2.7l-2.5,1.4l-2.5-1.4v-2.7L344.8,471.9 M344.8,471.6l-2.8,1.5v3
																	l2.8,1.5l2.8-1.5v-3L344.8,471.6L344.8,471.6z"/>
															</g>
															<g>
																<path fill="#CECECE" d="M350,471.9l2.5,1.4v2.7l-2.5,1.4l-2.5-1.4v-2.7L350,471.9 M350,471.6l-2.8,1.5v3l2.8,1.5
																	l2.8-1.5v-3L350,471.6L350,471.6z"/>
															</g>
															<g>
																<path fill="#CECECE" d="M355.2,471.9l2.5,1.4v2.7l-2.5,1.4l-2.5-1.4v-2.7L355.2,471.9 M355.2,471.6l-2.8,1.5v3
																	l2.8,1.5l2.8-1.5v-3L355.2,471.6L355.2,471.6z"/>
															</g>
														</g>
													</g>
												</g>
												<g>
													<g>
														<defs>
															<rect id="SVGID_27_" x="255.6" y="468.7" width="83.9" height="31.7"/>
														</defs>
														<clipPath id="SVGID_28_">
															<use xlink:href="#SVGID_27_"  overflow="visible"/>
														</clipPath>
														<g clip-path="url(#SVGID_28_)">
															<g>
																<path fill="#CECECE" d="M258.4,476.4l2.5,1.4v2.7l-2.5,1.4l-2.5-1.4v-2.7L258.4,476.4 M258.4,476l-2.8,1.5v3
																	l2.8,1.5l2.8-1.5v-3L258.4,476L258.4,476z"/>
															</g>
															<g>
																<path fill="#CECECE" d="M263.6,476.4l2.5,1.4v2.7l-2.5,1.4l-2.5-1.4v-2.7L263.6,476.4 M263.6,476l-2.8,1.5v3
																	l2.8,1.5l2.8-1.5v-3L263.6,476L263.6,476z"/>
															</g>
															<g>
																<path fill="#CECECE" d="M268.8,476.4l2.5,1.4v2.7l-2.5,1.4l-2.5-1.4v-2.7L268.8,476.4 M268.8,476l-2.8,1.5v3
																	l2.8,1.5l2.8-1.5v-3L268.8,476L268.8,476z"/>
															</g>
															<g>
																<path fill="#CECECE" d="M274.1,476.4l2.5,1.4v2.7l-2.5,1.4l-2.5-1.4v-2.7L274.1,476.4 M274.1,476l-2.8,1.5v3
																	l2.8,1.5l2.8-1.5v-3L274.1,476L274.1,476z"/>
															</g>
															<g>
																<path fill="#CECECE" d="M279.3,476.4l2.5,1.4v2.7l-2.5,1.4l-2.5-1.4v-2.7L279.3,476.4 M279.3,476l-2.8,1.5v3
																	l2.8,1.5l2.8-1.5v-3L279.3,476L279.3,476z"/>
															</g>
															<g>
																<path fill="#CECECE" d="M284.5,476.4l2.5,1.4v2.7l-2.5,1.4l-2.5-1.4v-2.7L284.5,476.4 M284.5,476l-2.8,1.5v3
																	l2.8,1.5l2.8-1.5v-3L284.5,476L284.5,476z"/>
															</g>
															<g>
																<path fill="#CECECE" d="M289.8,476.4l2.5,1.4v2.7l-2.5,1.4l-2.5-1.4v-2.7L289.8,476.4 M289.8,476l-2.8,1.5v3
																	l2.8,1.5l2.8-1.5v-3L289.8,476L289.8,476z"/>
															</g>
															<g>
																<path fill="#CECECE" d="M295,476.4l2.5,1.4v2.7l-2.5,1.4l-2.5-1.4v-2.7L295,476.4 M295,476l-2.8,1.5v3l2.8,1.5
																	l2.8-1.5v-3L295,476L295,476z"/>
															</g>
															<g>
																<path fill="#CECECE" d="M300.3,476.4l2.5,1.4v2.7l-2.5,1.4l-2.5-1.4v-2.7L300.3,476.4 M300.3,476l-2.8,1.5v3
																	l2.8,1.5l2.8-1.5v-3L300.3,476L300.3,476z"/>
															</g>
															<g>
																<path fill="#CECECE" d="M305.5,476.4l2.5,1.4v2.7l-2.5,1.4l-2.5-1.4v-2.7L305.5,476.4 M305.5,476l-2.8,1.5v3
																	l2.8,1.5l2.8-1.5v-3L305.5,476L305.5,476z"/>
															</g>
															<g>
																<path fill="#CECECE" d="M310.7,476.4l2.5,1.4v2.7l-2.5,1.4l-2.5-1.4v-2.7L310.7,476.4 M310.7,476l-2.8,1.5v3
																	l2.8,1.5l2.8-1.5v-3L310.7,476L310.7,476z"/>
															</g>
															<g>
																<path fill="#CECECE" d="M316,476.4l2.5,1.4v2.7l-2.5,1.4l-2.5-1.4v-2.7L316,476.4 M316,476l-2.8,1.5v3l2.8,1.5
																	l2.8-1.5v-3L316,476L316,476z"/>
															</g>
															<g>
																<path fill="#CECECE" d="M321.2,476.4l2.5,1.4v2.7l-2.5,1.4l-2.5-1.4v-2.7L321.2,476.4 M321.2,476l-2.8,1.5v3
																	l2.8,1.5l2.8-1.5v-3L321.2,476L321.2,476z"/>
															</g>
															<g>
																<path fill="#CECECE" d="M326.4,476.4l2.5,1.4v2.7l-2.5,1.4l-2.5-1.4v-2.7L326.4,476.4 M326.4,476l-2.8,1.5v3
																	l2.8,1.5l2.8-1.5v-3L326.4,476L326.4,476z"/>
															</g>
															<g>
																<path fill="#CECECE" d="M331.7,476.4l2.5,1.4v2.7l-2.5,1.4l-2.5-1.4v-2.7L331.7,476.4 M331.7,476l-2.8,1.5v3
																	l2.8,1.5l2.8-1.5v-3L331.7,476L331.7,476z"/>
															</g>
															<g>
																<path fill="#CECECE" d="M336.9,476.4l2.5,1.4v2.7l-2.5,1.4l-2.5-1.4v-2.7L336.9,476.4 M336.9,476l-2.8,1.5v3
																	l2.8,1.5l2.8-1.5v-3L336.9,476L336.9,476z"/>
															</g>
															<g>
																<path fill="#CECECE" d="M342.1,476.4l2.5,1.4v2.7l-2.5,1.4l-2.5-1.4v-2.7L342.1,476.4 M342.1,476l-2.8,1.5v3
																	l2.8,1.5l2.8-1.5v-3L342.1,476L342.1,476z"/>
															</g>
															<g>
																<path fill="#CECECE" d="M347.4,476.4l2.5,1.4v2.7l-2.5,1.4l-2.5-1.4v-2.7L347.4,476.4 M347.4,476l-2.8,1.5v3
																	l2.8,1.5l2.8-1.5v-3L347.4,476L347.4,476z"/>
															</g>
															<g>
																<path fill="#CECECE" d="M352.6,476.4l2.5,1.4v2.7l-2.5,1.4l-2.5-1.4v-2.7L352.6,476.4 M352.6,476l-2.8,1.5v3
																	l2.8,1.5l2.8-1.5v-3L352.6,476L352.6,476z"/>
															</g>
															<g>
																<path fill="#CECECE" d="M357.9,476.4l2.5,1.4v2.7l-2.5,1.4l-2.5-1.4v-2.7L357.9,476.4 M357.9,476l-2.8,1.5v3
																	l2.8,1.5l2.8-1.5v-3L357.9,476L357.9,476z"/>
															</g>
														</g>
													</g>
												</g>
												<g>
													<g>
														<defs>
															<rect id="SVGID_29_" x="255.6" y="468.7" width="83.9" height="31.7"/>
														</defs>
														<clipPath id="SVGID_30_">
															<use xlink:href="#SVGID_29_"  overflow="visible"/>
														</clipPath>
														<g clip-path="url(#SVGID_30_)">
															<g>
																<path fill="#CECECE" d="M255.7,480.8l2.5,1.4v2.7l-2.5,1.4l-2.5-1.4v-2.7L255.7,480.8 M255.7,480.5L253,482v3
																	l2.8,1.5l2.8-1.5v-3L255.7,480.5L255.7,480.5z"/>
															</g>
															<g>
																<path fill="#CECECE" d="M261,480.8l2.5,1.4v2.7l-2.5,1.4l-2.5-1.4v-2.7L261,480.8 M261,480.5l-2.8,1.5v3l2.8,1.5
																	l2.8-1.5v-3L261,480.5L261,480.5z"/>
															</g>
															<g>
																<path fill="#CECECE" d="M266.2,480.8l2.5,1.4v2.7l-2.5,1.4l-2.5-1.4v-2.7L266.2,480.8 M266.2,480.5l-2.8,1.5v3
																	l2.8,1.5l2.8-1.5v-3L266.2,480.5L266.2,480.5z"/>
															</g>
															<g>
																<path fill="#CECECE" d="M271.5,480.8l2.5,1.4v2.7l-2.5,1.4l-2.5-1.4v-2.7L271.5,480.8 M271.5,480.5l-2.8,1.5v3
																	l2.8,1.5l2.8-1.5v-3L271.5,480.5L271.5,480.5z"/>
															</g>
															<g>
																<path fill="#CECECE" d="M276.7,480.8l2.5,1.4v2.7l-2.5,1.4l-2.5-1.4v-2.7L276.7,480.8 M276.7,480.5l-2.8,1.5v3
																	l2.8,1.5l2.8-1.5v-3L276.7,480.5L276.7,480.5z"/>
															</g>
															<g>
																<path fill="#CECECE" d="M281.9,480.8l2.5,1.4v2.7l-2.5,1.4l-2.5-1.4v-2.7L281.9,480.8 M281.9,480.5l-2.8,1.5v3
																	l2.8,1.5l2.8-1.5v-3L281.9,480.5L281.9,480.5z"/>
															</g>
															<g>
																<path fill="#CECECE" d="M287.2,480.8l2.5,1.4v2.7l-2.5,1.4l-2.5-1.4v-2.7L287.2,480.8 M287.2,480.5l-2.8,1.5v3
																	l2.8,1.5l2.8-1.5v-3L287.2,480.5L287.2,480.5z"/>
															</g>
															<g>
																<path fill="#CECECE" d="M292.4,480.8l2.5,1.4v2.7l-2.5,1.4l-2.5-1.4v-2.7L292.4,480.8 M292.4,480.5l-2.8,1.5v3
																	l2.8,1.5l2.8-1.5v-3L292.4,480.5L292.4,480.5z"/>
															</g>
															<g>
																<path fill="#CECECE" d="M297.6,480.8l2.5,1.4v2.7l-2.5,1.4l-2.5-1.4v-2.7L297.6,480.8 M297.6,480.5l-2.8,1.5v3
																	l2.8,1.5l2.8-1.5v-3L297.6,480.5L297.6,480.5z"/>
															</g>
															<g>
																<path fill="#CECECE" d="M302.9,480.8l2.5,1.4v2.7l-2.5,1.4l-2.5-1.4v-2.7L302.9,480.8 M302.9,480.5l-2.8,1.5v3
																	l2.8,1.5l2.8-1.5v-3L302.9,480.5L302.9,480.5z"/>
															</g>
															<g>
																<path fill="#CECECE" d="M308.1,480.8l2.5,1.4v2.7l-2.5,1.4l-2.5-1.4v-2.7L308.1,480.8 M308.1,480.5l-2.8,1.5v3
																	l2.8,1.5l2.8-1.5v-3L308.1,480.5L308.1,480.5z"/>
															</g>
															<g>
																<path fill="#CECECE" d="M313.3,480.8l2.5,1.4v2.7l-2.5,1.4l-2.5-1.4v-2.7L313.3,480.8 M313.3,480.5l-2.8,1.5v3
																	l2.8,1.5l2.8-1.5v-3L313.3,480.5L313.3,480.5z"/>
															</g>
															<g>
																<path fill="#CECECE" d="M318.6,480.8l2.5,1.4v2.7l-2.5,1.4l-2.5-1.4v-2.7L318.6,480.8 M318.6,480.5l-2.8,1.5v3
																	l2.8,1.5l2.8-1.5v-3L318.6,480.5L318.6,480.5z"/>
															</g>
															<g>
																<path fill="#CECECE" d="M323.8,480.8l2.5,1.4v2.7l-2.5,1.4l-2.5-1.4v-2.7L323.8,480.8 M323.8,480.5l-2.8,1.5v3
																	l2.8,1.5l2.8-1.5v-3L323.8,480.5L323.8,480.5z"/>
															</g>
															<g>
																<path fill="#CECECE" d="M329.1,480.8l2.5,1.4v2.7l-2.5,1.4l-2.5-1.4v-2.7L329.1,480.8 M329.1,480.5l-2.8,1.5v3
																	l2.8,1.5l2.8-1.5v-3L329.1,480.5L329.1,480.5z"/>
															</g>
															<g>
																<path fill="#CECECE" d="M334.3,480.8l2.5,1.4v2.7l-2.5,1.4l-2.5-1.4v-2.7L334.3,480.8 M334.3,480.5l-2.8,1.5v3
																	l2.8,1.5l2.8-1.5v-3L334.3,480.5L334.3,480.5z"/>
															</g>
															<g>
																<path fill="#CECECE" d="M339.5,480.8l2.5,1.4v2.7l-2.5,1.4l-2.5-1.4v-2.7L339.5,480.8 M339.5,480.5l-2.8,1.5v3
																	l2.8,1.5l2.8-1.5v-3L339.5,480.5L339.5,480.5z"/>
															</g>
															<g>
																<path fill="#CECECE" d="M344.8,480.8l2.5,1.4v2.7l-2.5,1.4l-2.5-1.4v-2.7L344.8,480.8 M344.8,480.5L342,482v3
																	l2.8,1.5l2.8-1.5v-3L344.8,480.5L344.8,480.5z"/>
															</g>
															<g>
																<path fill="#CECECE" d="M350,480.8l2.5,1.4v2.7l-2.5,1.4l-2.5-1.4v-2.7L350,480.8 M350,480.5l-2.8,1.5v3l2.8,1.5
																	l2.8-1.5v-3L350,480.5L350,480.5z"/>
															</g>
															<g>
																<path fill="#CECECE" d="M355.2,480.8l2.5,1.4v2.7l-2.5,1.4l-2.5-1.4v-2.7L355.2,480.8 M355.2,480.5l-2.8,1.5v3
																	l2.8,1.5l2.8-1.5v-3L355.2,480.5L355.2,480.5z"/>
															</g>
														</g>
													</g>
												</g>
												<g>
													<g>
														<defs>
															<rect id="SVGID_31_" x="255.6" y="468.7" width="83.9" height="31.7"/>
														</defs>
														<clipPath id="SVGID_32_">
															<use xlink:href="#SVGID_31_"  overflow="visible"/>
														</clipPath>
														<g clip-path="url(#SVGID_32_)">
															<g>
																<path fill="#CECECE" d="M258.4,485.2l2.5,1.4v2.7l-2.5,1.4l-2.5-1.4v-2.7L258.4,485.2 M258.4,484.9l-2.8,1.5v3
																	l2.8,1.5l2.8-1.5v-3L258.4,484.9L258.4,484.9z"/>
															</g>
															<g>
																<path fill="#CECECE" d="M263.6,485.2l2.5,1.4v2.7l-2.5,1.4l-2.5-1.4v-2.7L263.6,485.2 M263.6,484.9l-2.8,1.5v3
																	l2.8,1.5l2.8-1.5v-3L263.6,484.9L263.6,484.9z"/>
															</g>
															<g>
																<path fill="#CECECE" d="M268.8,485.2l2.5,1.4v2.7l-2.5,1.4l-2.5-1.4v-2.7L268.8,485.2 M268.8,484.9l-2.8,1.5v3
																	l2.8,1.5l2.8-1.5v-3L268.8,484.9L268.8,484.9z"/>
															</g>
															<g>
																<path fill="#CECECE" d="M274.1,485.2l2.5,1.4v2.7l-2.5,1.4l-2.5-1.4v-2.7L274.1,485.2 M274.1,484.9l-2.8,1.5v3
																	l2.8,1.5l2.8-1.5v-3L274.1,484.9L274.1,484.9z"/>
															</g>
															<g>
																<path fill="#CECECE" d="M279.3,485.2l2.5,1.4v2.7l-2.5,1.4l-2.5-1.4v-2.7L279.3,485.2 M279.3,484.9l-2.8,1.5v3
																	l2.8,1.5l2.8-1.5v-3L279.3,484.9L279.3,484.9z"/>
															</g>
															<g>
																<path fill="#CECECE" d="M284.5,485.2l2.5,1.4v2.7l-2.5,1.4l-2.5-1.4v-2.7L284.5,485.2 M284.5,484.9l-2.8,1.5v3
																	l2.8,1.5l2.8-1.5v-3L284.5,484.9L284.5,484.9z"/>
															</g>
															<g>
																<path fill="#CECECE" d="M289.8,485.2l2.5,1.4v2.7l-2.5,1.4l-2.5-1.4v-2.7L289.8,485.2 M289.8,484.9l-2.8,1.5v3
																	l2.8,1.5l2.8-1.5v-3L289.8,484.9L289.8,484.9z"/>
															</g>
															<g>
																<path fill="#CECECE" d="M295,485.2l2.5,1.4v2.7l-2.5,1.4l-2.5-1.4v-2.7L295,485.2 M295,484.9l-2.8,1.5v3l2.8,1.5
																	l2.8-1.5v-3L295,484.9L295,484.9z"/>
															</g>
															<g>
																<path fill="#CECECE" d="M300.3,485.2l2.5,1.4v2.7l-2.5,1.4l-2.5-1.4v-2.7L300.3,485.2 M300.3,484.9l-2.8,1.5v3
																	l2.8,1.5l2.8-1.5v-3L300.3,484.9L300.3,484.9z"/>
															</g>
															<g>
																<path fill="#CECECE" d="M305.5,485.2l2.5,1.4v2.7l-2.5,1.4l-2.5-1.4v-2.7L305.5,485.2 M305.5,484.9l-2.8,1.5v3
																	l2.8,1.5l2.8-1.5v-3L305.5,484.9L305.5,484.9z"/>
															</g>
															<g>
																<path fill="#CECECE" d="M310.7,485.2l2.5,1.4v2.7l-2.5,1.4l-2.5-1.4v-2.7L310.7,485.2 M310.7,484.9l-2.8,1.5v3
																	l2.8,1.5l2.8-1.5v-3L310.7,484.9L310.7,484.9z"/>
															</g>
															<g>
																<path fill="#CECECE" d="M316,485.2l2.5,1.4v2.7l-2.5,1.4l-2.5-1.4v-2.7L316,485.2 M316,484.9l-2.8,1.5v3l2.8,1.5
																	l2.8-1.5v-3L316,484.9L316,484.9z"/>
															</g>
															<g>
																<path fill="#CECECE" d="M321.2,485.2l2.5,1.4v2.7l-2.5,1.4l-2.5-1.4v-2.7L321.2,485.2 M321.2,484.9l-2.8,1.5v3
																	l2.8,1.5l2.8-1.5v-3L321.2,484.9L321.2,484.9z"/>
															</g>
															<g>
																<path fill="#CECECE" d="M326.4,485.2l2.5,1.4v2.7l-2.5,1.4l-2.5-1.4v-2.7L326.4,485.2 M326.4,484.9l-2.8,1.5v3
																	l2.8,1.5l2.8-1.5v-3L326.4,484.9L326.4,484.9z"/>
															</g>
															<g>
																<path fill="#CECECE" d="M331.7,485.2l2.5,1.4v2.7l-2.5,1.4l-2.5-1.4v-2.7L331.7,485.2 M331.7,484.9l-2.8,1.5v3
																	l2.8,1.5l2.8-1.5v-3L331.7,484.9L331.7,484.9z"/>
															</g>
															<g>
																<path fill="#CECECE" d="M336.9,485.2l2.5,1.4v2.7l-2.5,1.4l-2.5-1.4v-2.7L336.9,485.2 M336.9,484.9l-2.8,1.5v3
																	l2.8,1.5l2.8-1.5v-3L336.9,484.9L336.9,484.9z"/>
															</g>
															<g>
																<path fill="#CECECE" d="M342.1,485.2l2.5,1.4v2.7l-2.5,1.4l-2.5-1.4v-2.7L342.1,485.2 M342.1,484.9l-2.8,1.5v3
																	l2.8,1.5l2.8-1.5v-3L342.1,484.9L342.1,484.9z"/>
															</g>
															<g>
																<path fill="#CECECE" d="M347.4,485.2l2.5,1.4v2.7l-2.5,1.4l-2.5-1.4v-2.7L347.4,485.2 M347.4,484.9l-2.8,1.5v3
																	l2.8,1.5l2.8-1.5v-3L347.4,484.9L347.4,484.9z"/>
															</g>
															<g>
																<path fill="#CECECE" d="M352.6,485.2l2.5,1.4v2.7l-2.5,1.4l-2.5-1.4v-2.7L352.6,485.2 M352.6,484.9l-2.8,1.5v3
																	l2.8,1.5l2.8-1.5v-3L352.6,484.9L352.6,484.9z"/>
															</g>
															<g>
																<path fill="#CECECE" d="M357.9,485.2l2.5,1.4v2.7l-2.5,1.4l-2.5-1.4v-2.7L357.9,485.2 M357.9,484.9l-2.8,1.5v3
																	l2.8,1.5l2.8-1.5v-3L357.9,484.9L357.9,484.9z"/>
															</g>
														</g>
													</g>
												</g>
												<g>
													<g>
														<defs>
															<rect id="SVGID_33_" x="255.6" y="468.7" width="83.9" height="31.7"/>
														</defs>
														<clipPath id="SVGID_34_">
															<use xlink:href="#SVGID_33_"  overflow="visible"/>
														</clipPath>
														<g clip-path="url(#SVGID_34_)">
															<g>
																<path fill="#CECECE" d="M255.7,489.7l2.5,1.4v2.7l-2.5,1.4l-2.5-1.4v-2.7L255.7,489.7 M255.7,489.4l-2.8,1.5v3
																	l2.8,1.5l2.8-1.5v-3L255.7,489.4L255.7,489.4z"/>
															</g>
															<g>
																<path fill="#CECECE" d="M261,489.7l2.5,1.4v2.7l-2.5,1.4l-2.5-1.4v-2.7L261,489.7 M261,489.4l-2.8,1.5v3l2.8,1.5
																	l2.8-1.5v-3L261,489.4L261,489.4z"/>
															</g>
															<g>
																<path fill="#CECECE" d="M266.2,489.7l2.5,1.4v2.7l-2.5,1.4l-2.5-1.4v-2.7L266.2,489.7 M266.2,489.4l-2.8,1.5v3
																	l2.8,1.5l2.8-1.5v-3L266.2,489.4L266.2,489.4z"/>
															</g>
															<g>
																<path fill="#CECECE" d="M271.5,489.7l2.5,1.4v2.7l-2.5,1.4l-2.5-1.4v-2.7L271.5,489.7 M271.5,489.4l-2.8,1.5v3
																	l2.8,1.5l2.8-1.5v-3L271.5,489.4L271.5,489.4z"/>
															</g>
															<g>
																<path fill="#CECECE" d="M276.7,489.7l2.5,1.4v2.7l-2.5,1.4l-2.5-1.4v-2.7L276.7,489.7 M276.7,489.4l-2.8,1.5v3
																	l2.8,1.5l2.8-1.5v-3L276.7,489.4L276.7,489.4z"/>
															</g>
															<g>
																<path fill="#CECECE" d="M281.9,489.7l2.5,1.4v2.7l-2.5,1.4l-2.5-1.4v-2.7L281.9,489.7 M281.9,489.4l-2.8,1.5v3
																	l2.8,1.5l2.8-1.5v-3L281.9,489.4L281.9,489.4z"/>
															</g>
															<g>
																<path fill="#CECECE" d="M287.2,489.7l2.5,1.4v2.7l-2.5,1.4l-2.5-1.4v-2.7L287.2,489.7 M287.2,489.4l-2.8,1.5v3
																	l2.8,1.5l2.8-1.5v-3L287.2,489.4L287.2,489.4z"/>
															</g>
															<g>
																<path fill="#CECECE" d="M292.4,489.7l2.5,1.4v2.7l-2.5,1.4l-2.5-1.4v-2.7L292.4,489.7 M292.4,489.4l-2.8,1.5v3
																	l2.8,1.5l2.8-1.5v-3L292.4,489.4L292.4,489.4z"/>
															</g>
															<g>
																<path fill="#CECECE" d="M297.6,489.7l2.5,1.4v2.7l-2.5,1.4l-2.5-1.4v-2.7L297.6,489.7 M297.6,489.4l-2.8,1.5v3
																	l2.8,1.5l2.8-1.5v-3L297.6,489.4L297.6,489.4z"/>
															</g>
															<g>
																<path fill="#CECECE" d="M302.9,489.7l2.5,1.4v2.7l-2.5,1.4l-2.5-1.4v-2.7L302.9,489.7 M302.9,489.4l-2.8,1.5v3
																	l2.8,1.5l2.8-1.5v-3L302.9,489.4L302.9,489.4z"/>
															</g>
															<g>
																<path fill="#CECECE" d="M308.1,489.7l2.5,1.4v2.7l-2.5,1.4l-2.5-1.4v-2.7L308.1,489.7 M308.1,489.4l-2.8,1.5v3
																	l2.8,1.5l2.8-1.5v-3L308.1,489.4L308.1,489.4z"/>
															</g>
															<g>
																<path fill="#CECECE" d="M313.3,489.7l2.5,1.4v2.7l-2.5,1.4l-2.5-1.4v-2.7L313.3,489.7 M313.3,489.4l-2.8,1.5v3
																	l2.8,1.5l2.8-1.5v-3L313.3,489.4L313.3,489.4z"/>
															</g>
															<g>
																<path fill="#CECECE" d="M318.6,489.7l2.5,1.4v2.7l-2.5,1.4l-2.5-1.4v-2.7L318.6,489.7 M318.6,489.4l-2.8,1.5v3
																	l2.8,1.5l2.8-1.5v-3L318.6,489.4L318.6,489.4z"/>
															</g>
															<g>
																<path fill="#CECECE" d="M323.8,489.7l2.5,1.4v2.7l-2.5,1.4l-2.5-1.4v-2.7L323.8,489.7 M323.8,489.4l-2.8,1.5v3
																	l2.8,1.5l2.8-1.5v-3L323.8,489.4L323.8,489.4z"/>
															</g>
															<g>
																<path fill="#CECECE" d="M329.1,489.7l2.5,1.4v2.7l-2.5,1.4l-2.5-1.4v-2.7L329.1,489.7 M329.1,489.4l-2.8,1.5v3
																	l2.8,1.5l2.8-1.5v-3L329.1,489.4L329.1,489.4z"/>
															</g>
															<g>
																<path fill="#CECECE" d="M334.3,489.7l2.5,1.4v2.7l-2.5,1.4l-2.5-1.4v-2.7L334.3,489.7 M334.3,489.4l-2.8,1.5v3
																	l2.8,1.5l2.8-1.5v-3L334.3,489.4L334.3,489.4z"/>
															</g>
															<g>
																<path fill="#CECECE" d="M339.5,489.7l2.5,1.4v2.7l-2.5,1.4l-2.5-1.4v-2.7L339.5,489.7 M339.5,489.4l-2.8,1.5v3
																	l2.8,1.5l2.8-1.5v-3L339.5,489.4L339.5,489.4z"/>
															</g>
															<g>
																<path fill="#CECECE" d="M344.8,489.7l2.5,1.4v2.7l-2.5,1.4l-2.5-1.4v-2.7L344.8,489.7 M344.8,489.4l-2.8,1.5v3
																	l2.8,1.5l2.8-1.5v-3L344.8,489.4L344.8,489.4z"/>
															</g>
															<g>
																<path fill="#CECECE" d="M350,489.7l2.5,1.4v2.7l-2.5,1.4l-2.5-1.4v-2.7L350,489.7 M350,489.4l-2.8,1.5v3l2.8,1.5
																	l2.8-1.5v-3L350,489.4L350,489.4z"/>
															</g>
															<g>
																<path fill="#CECECE" d="M355.2,489.7l2.5,1.4v2.7l-2.5,1.4l-2.5-1.4v-2.7L355.2,489.7 M355.2,489.4l-2.8,1.5v3
																	l2.8,1.5l2.8-1.5v-3L355.2,489.4L355.2,489.4z"/>
															</g>
														</g>
													</g>
												</g>
												<g>
													<g>
														<defs>
															<rect id="SVGID_35_" x="255.6" y="468.7" width="83.9" height="31.7"/>
														</defs>
														<clipPath id="SVGID_36_">
															<use xlink:href="#SVGID_35_"  overflow="visible"/>
														</clipPath>
														<g clip-path="url(#SVGID_36_)">
															<g>
																<path fill="#CECECE" d="M258.4,494.1l2.5,1.4v2.7l-2.5,1.4l-2.5-1.4v-2.7L258.4,494.1 M258.4,493.8l-2.8,1.5v3
																	l2.8,1.5l2.8-1.5v-3L258.4,493.8L258.4,493.8z"/>
															</g>
															<g>
																<path fill="#CECECE" d="M263.6,494.1l2.5,1.4v2.7l-2.5,1.4l-2.5-1.4v-2.7L263.6,494.1 M263.6,493.8l-2.8,1.5v3
																	l2.8,1.5l2.8-1.5v-3L263.6,493.8L263.6,493.8z"/>
															</g>
															<g>
																<path fill="#CECECE" d="M268.8,494.1l2.5,1.4v2.7l-2.5,1.4l-2.5-1.4v-2.7L268.8,494.1 M268.8,493.8l-2.8,1.5v3
																	l2.8,1.5l2.8-1.5v-3L268.8,493.8L268.8,493.8z"/>
															</g>
															<g>
																<path fill="#CECECE" d="M274.1,494.1l2.5,1.4v2.7l-2.5,1.4l-2.5-1.4v-2.7L274.1,494.1 M274.1,493.8l-2.8,1.5v3
																	l2.8,1.5l2.8-1.5v-3L274.1,493.8L274.1,493.8z"/>
															</g>
															<g>
																<path fill="#CECECE" d="M279.3,494.1l2.5,1.4v2.7l-2.5,1.4l-2.5-1.4v-2.7L279.3,494.1 M279.3,493.8l-2.8,1.5v3
																	l2.8,1.5l2.8-1.5v-3L279.3,493.8L279.3,493.8z"/>
															</g>
															<g>
																<path fill="#CECECE" d="M284.5,494.1l2.5,1.4v2.7l-2.5,1.4l-2.5-1.4v-2.7L284.5,494.1 M284.5,493.8l-2.8,1.5v3
																	l2.8,1.5l2.8-1.5v-3L284.5,493.8L284.5,493.8z"/>
															</g>
															<g>
																<path fill="#CECECE" d="M289.8,494.1l2.5,1.4v2.7l-2.5,1.4l-2.5-1.4v-2.7L289.8,494.1 M289.8,493.8l-2.8,1.5v3
																	l2.8,1.5l2.8-1.5v-3L289.8,493.8L289.8,493.8z"/>
															</g>
															<g>
																<path fill="#CECECE" d="M295,494.1l2.5,1.4v2.7l-2.5,1.4l-2.5-1.4v-2.7L295,494.1 M295,493.8l-2.8,1.5v3l2.8,1.5
																	l2.8-1.5v-3L295,493.8L295,493.8z"/>
															</g>
															<g>
																<path fill="#CECECE" d="M300.3,494.1l2.5,1.4v2.7l-2.5,1.4l-2.5-1.4v-2.7L300.3,494.1 M300.3,493.8l-2.8,1.5v3
																	l2.8,1.5l2.8-1.5v-3L300.3,493.8L300.3,493.8z"/>
															</g>
															<g>
																<path fill="#CECECE" d="M305.5,494.1l2.5,1.4v2.7l-2.5,1.4l-2.5-1.4v-2.7L305.5,494.1 M305.5,493.8l-2.8,1.5v3
																	l2.8,1.5l2.8-1.5v-3L305.5,493.8L305.5,493.8z"/>
															</g>
															<g>
																<path fill="#CECECE" d="M310.7,494.1l2.5,1.4v2.7l-2.5,1.4l-2.5-1.4v-2.7L310.7,494.1 M310.7,493.8l-2.8,1.5v3
																	l2.8,1.5l2.8-1.5v-3L310.7,493.8L310.7,493.8z"/>
															</g>
															<g>
																<path fill="#CECECE" d="M316,494.1l2.5,1.4v2.7l-2.5,1.4l-2.5-1.4v-2.7L316,494.1 M316,493.8l-2.8,1.5v3l2.8,1.5
																	l2.8-1.5v-3L316,493.8L316,493.8z"/>
															</g>
															<g>
																<path fill="#CECECE" d="M321.2,494.1l2.5,1.4v2.7l-2.5,1.4l-2.5-1.4v-2.7L321.2,494.1 M321.2,493.8l-2.8,1.5v3
																	l2.8,1.5l2.8-1.5v-3L321.2,493.8L321.2,493.8z"/>
															</g>
															<g>
																<path fill="#CECECE" d="M326.4,494.1l2.5,1.4v2.7l-2.5,1.4l-2.5-1.4v-2.7L326.4,494.1 M326.4,493.8l-2.8,1.5v3
																	l2.8,1.5l2.8-1.5v-3L326.4,493.8L326.4,493.8z"/>
															</g>
															<g>
																<path fill="#CECECE" d="M331.7,494.1l2.5,1.4v2.7l-2.5,1.4l-2.5-1.4v-2.7L331.7,494.1 M331.7,493.8l-2.8,1.5v3
																	l2.8,1.5l2.8-1.5v-3L331.7,493.8L331.7,493.8z"/>
															</g>
															<g>
																<path fill="#CECECE" d="M336.9,494.1l2.5,1.4v2.7l-2.5,1.4l-2.5-1.4v-2.7L336.9,494.1 M336.9,493.8l-2.8,1.5v3
																	l2.8,1.5l2.8-1.5v-3L336.9,493.8L336.9,493.8z"/>
															</g>
															<g>
																<path fill="#CECECE" d="M342.1,494.1l2.5,1.4v2.7l-2.5,1.4l-2.5-1.4v-2.7L342.1,494.1 M342.1,493.8l-2.8,1.5v3
																	l2.8,1.5l2.8-1.5v-3L342.1,493.8L342.1,493.8z"/>
															</g>
															<g>
																<path fill="#CECECE" d="M347.4,494.1l2.5,1.4v2.7l-2.5,1.4l-2.5-1.4v-2.7L347.4,494.1 M347.4,493.8l-2.8,1.5v3
																	l2.8,1.5l2.8-1.5v-3L347.4,493.8L347.4,493.8z"/>
															</g>
															<g>
																<path fill="#CECECE" d="M352.6,494.1l2.5,1.4v2.7l-2.5,1.4l-2.5-1.4v-2.7L352.6,494.1 M352.6,493.8l-2.8,1.5v3
																	l2.8,1.5l2.8-1.5v-3L352.6,493.8L352.6,493.8z"/>
															</g>
															<g>
																<path fill="#CECECE" d="M357.9,494.1l2.5,1.4v2.7l-2.5,1.4l-2.5-1.4v-2.7L357.9,494.1 M357.9,493.8l-2.8,1.5v3
																	l2.8,1.5l2.8-1.5v-3L357.9,493.8L357.9,493.8z"/>
															</g>
														</g>
													</g>
												</g>
											</g>
											<polyline fill="none" stroke="#FFFFFF" stroke-width="7.89" stroke-miterlimit="10" points="254.9,500 254.9,467.7 
												340.4,467.7 340.4,500 											"/>
										</g>
										<g id="Advertising_board_L">
											<g id="Shadow" opacity="0.102">
												<g>
													<polygon points="126.3,483.8 131.4,493.4 208.5,493.4 213.6,483.8 													"/>
												</g>
											</g>
											<rect x="131.3" y="471" fill="#FFFFFF" width="77.2" height="22"/>
											<path fill="#37003C" d="M167.3,477.4c0.5,0.2,0.8,0.5,0.9,0.6c0-0.1-0.1-0.7-0.2-1.1c0.3,0.2,1,0.7,1.2,0.8
												c0.1-0.3,0.4-1.2,0.4-1.2s0.6,0.9,0.7,1.1c0.1-0.1,0.8-0.9,1-1.1c0,0.4,0.1,1,0.1,1.2c0-0.1,0.3-0.4,0.7-0.7
												c-0.2,0.4-0.3,0.9-0.3,1.3c-0.4-0.1-0.9-0.2-1.4-0.2c-0.9,0-1.7,0.2-2.5,0.6C167.7,478.2,167.5,477.7,167.3,477.4z
												 M174.1,485.2l-0.4-0.4c-0.1,1.2-0.7,2.2-1.7,2.9l-0.2-0.6c-0.9,0.7-2.4,1.1-3.7,0.3c0.2-0.8,0.3-1.7,0-2.7
												c-0.7,1.1-1.4,1.6-1.4,1.6c-0.5-0.8-0.4-2.5-0.3-3l-0.8,0.2c0-0.6,0.4-1.7,1-2.4l-0.5-0.1l0,0c0.4-0.7,0.9-1.3,1.5-1.8
												l0,0c-0.2,0.3-0.2,1,0.4,1.3c-0.2-0.4-0.3-0.9,0-1.2c0.2-0.3,0.7-0.2,0.9,0c-0.1-0.2-0.3-0.5-0.7-0.6l0,0
												c0.7-0.3,1.4-0.5,2.2-0.5c0.1,0,0.3,0,0.4,0l0,0c0.2,0.1,0.6,0.4,0.7,0.6c0,0,0-0.2-0.1-0.5c0.9,0.2,1.3,0.6,1.4,0.7
												c0,0.4,0.1,0.6,0.3,0.9c-0.3-0.3-1-0.8-1.3-0.9c0,0,0,0.3-0.1,0.5c-0.7-0.5-1-0.6-1-0.6c-0.7,0.1-1.2,0.4-1.5,0.6
												l0.2,0.2c-0.4,0.1-0.7,0.5-0.7,0.5l0.4,0.1c0,0,0,0.5,0.5,0.7c0.5,0.2,1.2-0.1,1.9,0.2c-0.4-0.5-0.7-0.7-0.7-0.7
												s-0.2,0-0.3,0c-0.2,0-0.4,0-0.6-0.1c-0.1-0.1-0.2-0.1-0.4-0.2c0,0,0.3-0.3,0.7-0.4c0,0,0.4,0.1,0.7,0.4
												c0.2-0.2,0.4-0.2,0.4-0.2s-0.2,0.2-0.2,0.4c0.3,0.3,0.7,0.7,0.7,0.7c0.4-0.2,1.1-0.1,1.3,0c-0.2-0.2-0.5-0.5-0.7-0.7
												c0-0.1-0.3-0.4-0.3-0.5c0,0,0.2,0.1,0.4,0.2c0.1-0.1,0.2-0.2,0.3-0.2c0.2,0.1,0.2,0.3,0.2,0.4c-0.1,0.1-0.1,0.1-0.1,0.1
												l0.4,0.4l0-0.3C174.2,481.9,174.7,483.4,174.1,485.2z M172.4,482.5v-0.6c0,0-0.3-0.1-0.6-0.3c-0.6,0.1-1.4,0.7-1.4,0.7
												s0.2,0.5,0.5,1C171.5,483.3,172.2,482.7,172.4,482.5z M173,483.7c0,0-0.1-0.3-0.2-0.5h-0.5c0,0-0.6,0.6-1,0.6
												c0,0,0.2,0.4,0.3,0.6c0.2-0.1,0.6-0.2,0.7-0.4c0,0,0.1,0.3,0.1,0.7C172.7,484.5,173,484.2,173,483.7z M173.2,481.6
												c-0.2,0.2-0.4,0.3-0.4,0.3v0.6c0.2,0.2,0.3,0.4,0.5,0.6C173.5,482.7,173.5,482.1,173.2,481.6z M139.9,484.4V479h1.7
												c1.1,0,2,0.7,2,1.8c0,1.2-0.8,1.8-2,1.8H141v1.8L139.9,484.4L139.9,484.4z M141,481.6h0.6c0.5,0,0.9-0.3,0.9-0.8
												s-0.4-0.8-0.9-0.8H141L141,481.6L141,481.6z M155.8,480.8h1v3.6h-1V480.8z M156.4,480.4c-0.4,0-0.6-0.3-0.6-0.6
												c0-0.4,0.3-0.6,0.6-0.6s0.6,0.3,0.6,0.6C157,480.1,156.7,480.4,156.4,480.4 M154.4,482.3c0-0.4-0.2-0.6-0.6-0.6
												c-0.4,0-0.6,0.2-0.6,0.6v2.1h-1v-2.1c0-0.4-0.2-0.6-0.6-0.6c-0.4,0-0.6,0.2-0.6,0.6v2.1h-1v-3.6h0.9l0.1,0.5
												c0,0,0.2-0.6,0.9-0.6c0.4,0,0.7,0.2,1,0.5l0,0l0,0c0.4-0.5,0.8-0.5,1-0.5c0.7,0,1.3,0.6,1.3,1.4v2.3h-1L154.4,482.3
												L154.4,482.3z M161.2,484.4v-3.6h0.9l0.1,0.5c0.2-0.3,0.5-0.6,0.9-0.6c0.1,0,0.2,0,0.3,0v0.9c-0.1,0-0.2,0-0.4,0
												c-0.5,0-0.8,0.3-0.8,0.9v1.8H161.2z M143.9,484.4v-3.6h0.9l0.1,0.5c0.2-0.3,0.5-0.6,0.9-0.6c0.1,0,0.2,0,0.3,0v0.9
												c-0.1,0-0.2,0-0.4,0c-0.5,0-0.8,0.3-0.8,0.9v1.8H143.9z M159.1,484.5c-1.1,0-1.9-0.7-1.9-1.8c0-1,0.7-1.9,1.9-1.9
												c0.9,0,1.7,0.7,1.7,1.8c0,0.1,0,0.2,0,0.4h-2.6c0.1,0.4,0.4,0.7,0.9,0.7c0.4,0,0.7-0.1,1-0.4l0.6,0.6
												C160.3,484.3,159.7,484.5,159.1,484.5 M159.1,481.6c-0.4,0-0.7,0.2-0.8,0.6h1.7C159.8,481.9,159.5,481.6,159.1,481.6
												 M148,484.5c-1.1,0-1.9-0.7-1.9-1.8c0-1,0.7-1.9,1.9-1.9c0.9,0,1.7,0.7,1.7,1.8c0,0.1,0,0.2,0,0.4h-2.6
												c0.1,0.4,0.4,0.7,0.9,0.7c0.4,0,0.7-0.1,1-0.4l0.6,0.6C149.2,484.3,148.7,484.5,148,484.5 M148,481.6
												c-0.4,0-0.7,0.2-0.8,0.6h1.7C148.7,481.9,148.4,481.6,148,481.6 M194.2,484.5c0.8,0,1.7-0.4,1.7-1.7v-1.9h-1v1.8
												c0,0.6-0.3,0.9-0.7,0.9c-0.5,0-0.7-0.3-0.7-0.9v-1.8h-1v1.9C192.4,484.1,193.4,484.5,194.2,484.5 M185.7,484.5
												c-0.9,0-1.8-0.9-1.8-1.9c0-1,0.8-1.8,1.8-1.8c0.5,0,0.9,0.2,1.1,0.5l0.1-0.5h0.9v3.6H187l-0.1-0.4
												C186.6,484.3,186.2,484.5,185.7,484.5 M185.9,481.7c-0.5,0-0.9,0.4-0.9,0.9c0,0.5,0.4,0.9,0.9,0.9c0.5,0,0.9-0.4,0.9-0.9
												C186.9,482.1,186.5,481.7,185.9,481.7 M179.8,484.4v-1h-2.3V479h-1v5.4H179.8z M181.9,484.5c-1.1,0-1.9-0.7-1.9-1.8
												c0-1,0.7-1.9,1.9-1.9c0.9,0,1.7,0.7,1.7,1.8c0,0.1,0,0.2,0,0.4H181c0.1,0.4,0.4,0.7,0.9,0.7c0.4,0,0.7-0.1,1-0.4l0.6,0.6
												C183.1,484.3,182.5,484.5,181.9,484.5 M181.9,481.6c-0.4,0-0.7,0.2-0.8,0.6h1.7C182.6,481.9,182.3,481.6,181.9,481.6
												 M198.2,484.5c-1.1,0-1.9-0.7-1.9-1.8c0-1,0.7-1.9,1.9-1.9c0.9,0,1.7,0.7,1.7,1.8c0,0.1,0,0.2,0,0.4h-2.6
												c0.1,0.4,0.4,0.7,0.9,0.7c0.4,0,0.7-0.1,1-0.4l0.6,0.6C199.3,484.3,198.8,484.5,198.2,484.5 M198.1,481.6
												c-0.4,0-0.7,0.2-0.8,0.6h1.7C198.8,481.9,198.5,481.6,198.1,481.6 M190.1,481.7c-0.5,0-0.9,0.4-0.9,0.9
												c0,0.5,0.4,0.9,0.9,0.9c0.5,0,0.9-0.4,0.9-0.9C191.1,482.1,190.7,481.7,190.1,481.7 M191,481.3l0.1-0.4h0.9v3.4
												c0,0.7-0.2,1.1-0.6,1.5c-0.3,0.2-0.8,0.4-1.3,0.4c-0.7,0-1.3-0.2-1.7-0.7l0.6-0.7c0.3,0.2,0.6,0.5,1.1,0.5
												c0.7,0,1-0.4,1-0.9v-0.2c-0.3,0.3-0.6,0.4-1,0.4c-1,0-1.8-0.8-1.8-1.9s0.8-1.8,1.8-1.8C190.4,480.8,190.8,481,191,481.3"
												/>
										</g>
										<g id="Advertising_board_R">
											<g id="Shadow_2_" opacity="0.102">
												<g>
													<polygon points="381.9,483.8 387,493.4 464.1,493.4 469.2,483.8 													"/>
												</g>
											</g>
											<rect x="386.9" y="471" fill="#FFFFFF" width="77.2" height="22"/>
											<path fill="#37003C" d="M422.8,477.4c0.5,0.2,0.8,0.5,0.9,0.6c0-0.1-0.1-0.7-0.2-1.1c0.3,0.2,1,0.7,1.2,0.8
												c0.1-0.3,0.4-1.2,0.4-1.2s0.6,0.9,0.7,1.1c0.1-0.1,0.8-0.9,1-1.1c0,0.4,0.1,1,0.1,1.2c0-0.1,0.3-0.4,0.7-0.7
												c-0.2,0.4-0.3,0.9-0.3,1.3c-0.4-0.1-0.9-0.2-1.4-0.2c-0.9,0-1.7,0.2-2.5,0.6C423.3,478.2,423.1,477.7,422.8,477.4z
												 M429.6,485.2l-0.4-0.4c-0.1,1.2-0.7,2.2-1.7,2.9l-0.2-0.6c-0.9,0.7-2.4,1.1-3.7,0.3c0.2-0.8,0.3-1.7,0-2.7
												c-0.7,1.1-1.4,1.6-1.4,1.6c-0.5-0.8-0.4-2.5-0.3-3l-0.8,0.2c0-0.6,0.4-1.7,1-2.4l-0.5-0.1l0,0c0.4-0.7,0.9-1.3,1.5-1.8
												l0,0c-0.2,0.3-0.2,1,0.4,1.3c-0.2-0.4-0.3-0.9,0-1.2c0.2-0.3,0.7-0.2,0.9,0c-0.1-0.2-0.3-0.5-0.7-0.6l0,0
												c0.7-0.3,1.4-0.5,2.2-0.5c0.1,0,0.3,0,0.4,0l0,0c0.2,0.1,0.6,0.4,0.7,0.6c0,0,0-0.2-0.1-0.5c0.9,0.2,1.3,0.6,1.4,0.7
												c0,0.4,0.1,0.6,0.3,0.9c-0.3-0.3-1-0.8-1.3-0.9c0,0,0,0.3-0.1,0.5c-0.7-0.5-1-0.6-1-0.6c-0.7,0.1-1.2,0.4-1.5,0.6
												l0.2,0.2c-0.4,0.1-0.7,0.5-0.7,0.5l0.4,0.1c0,0,0,0.5,0.5,0.7c0.5,0.2,1.2-0.1,1.9,0.2c-0.4-0.5-0.7-0.7-0.7-0.7
												s-0.2,0-0.3,0c-0.2,0-0.4,0-0.6-0.1c-0.1-0.1-0.2-0.1-0.4-0.2c0,0,0.3-0.3,0.7-0.4c0,0,0.4,0.1,0.7,0.4
												c0.2-0.2,0.4-0.2,0.4-0.2s-0.2,0.2-0.2,0.4c0.3,0.3,0.7,0.7,0.7,0.7c0.4-0.2,1.1-0.1,1.3,0c-0.2-0.2-0.5-0.5-0.7-0.7
												c0-0.1-0.3-0.4-0.3-0.5c0,0,0.2,0.1,0.4,0.2c0.1-0.1,0.2-0.2,0.3-0.2c0.2,0.1,0.2,0.3,0.2,0.4c-0.1,0.1-0.1,0.1-0.1,0.1
												l0.4,0.4l0-0.3C429.8,481.9,430.3,483.4,429.6,485.2z M428,482.5v-0.6c0,0-0.3-0.1-0.6-0.3c-0.6,0.1-1.4,0.7-1.4,0.7
												s0.2,0.5,0.5,1C427.1,483.3,427.8,482.7,428,482.5z M428.6,483.7c0,0-0.1-0.3-0.2-0.5h-0.5c0,0-0.6,0.6-1,0.6
												c0,0,0.2,0.4,0.3,0.6c0.2-0.1,0.6-0.2,0.7-0.4c0,0,0.1,0.3,0.1,0.7C428.2,484.5,428.5,484.2,428.6,483.7z M428.8,481.6
												c-0.2,0.2-0.4,0.3-0.4,0.3v0.6c0.2,0.2,0.3,0.4,0.5,0.6C429.1,482.7,429.1,482.1,428.8,481.6z M395.6,484.4V479h1.7
												c1.1,0,2,0.7,2,1.8c0,1.2-0.8,1.8-2,1.8h-0.7v1.8L395.6,484.4L395.6,484.4z M396.6,481.6h0.6c0.5,0,0.9-0.3,0.9-0.8
												s-0.4-0.8-0.9-0.8h-0.6V481.6z M411.4,480.8h1v3.6h-1V480.8z M412,480.4c-0.4,0-0.6-0.3-0.6-0.6c0-0.4,0.3-0.6,0.6-0.6
												c0.4,0,0.6,0.3,0.6,0.6C412.6,480.1,412.3,480.4,412,480.4 M410,482.3c0-0.4-0.2-0.6-0.6-0.6c-0.4,0-0.6,0.2-0.6,0.6v2.1
												h-1v-2.1c0-0.4-0.2-0.6-0.6-0.6c-0.4,0-0.6,0.2-0.6,0.6v2.1h-1v-3.6h0.9l0.1,0.5c0,0,0.2-0.6,0.9-0.6
												c0.4,0,0.7,0.2,1,0.5l0,0l0,0c0.4-0.5,0.8-0.5,1-0.5c0.7,0,1.3,0.6,1.3,1.4v2.3h-1L410,482.3L410,482.3z M416.8,484.4
												v-3.6h0.9l0.1,0.5c0.2-0.3,0.5-0.6,0.9-0.6c0.1,0,0.2,0,0.3,0v0.9c-0.1,0-0.2,0-0.4,0c-0.5,0-0.8,0.3-0.8,0.9v1.8H416.8z
												 M399.5,484.4v-3.6h0.9l0.1,0.5c0.2-0.3,0.5-0.6,0.9-0.6c0.1,0,0.2,0,0.3,0v0.9c-0.1,0-0.2,0-0.4,0
												c-0.5,0-0.8,0.3-0.8,0.9v1.8H399.5z M414.7,484.5c-1.1,0-1.9-0.7-1.9-1.8c0-1,0.7-1.9,1.9-1.9c0.9,0,1.7,0.7,1.7,1.8
												c0,0.1,0,0.2,0,0.4h-2.6c0.1,0.4,0.4,0.7,0.9,0.7c0.4,0,0.7-0.1,1-0.4l0.6,0.6C415.9,484.3,415.3,484.5,414.7,484.5
												 M414.7,481.6c-0.4,0-0.7,0.2-0.8,0.6h1.7C415.4,481.9,415.1,481.6,414.7,481.6 M403.7,484.5c-1.1,0-1.9-0.7-1.9-1.8
												c0-1,0.7-1.9,1.9-1.9c0.9,0,1.7,0.7,1.7,1.8c0,0.1,0,0.2,0,0.4h-2.6c0.1,0.4,0.4,0.7,0.9,0.7c0.4,0,0.7-0.1,1-0.4
												l0.6,0.6C404.8,484.3,404.2,484.5,403.7,484.5 M403.6,481.6c-0.4,0-0.7,0.2-0.8,0.6h1.7
												C404.3,481.9,404,481.6,403.6,481.6 M449.8,484.5c0.8,0,1.7-0.4,1.7-1.7v-1.9h-1v1.8c0,0.6-0.3,0.9-0.7,0.9
												c-0.5,0-0.7-0.3-0.7-0.9v-1.8h-1v1.9C448,484.1,449,484.5,449.8,484.5 M441.3,484.5c-0.9,0-1.8-0.9-1.8-1.9
												c0-1,0.8-1.8,1.8-1.8c0.5,0,0.9,0.2,1.1,0.5l0.1-0.5h0.9v3.6h-0.9l-0.1-0.4C442.2,484.3,441.8,484.5,441.3,484.5
												 M441.5,481.7c-0.5,0-0.9,0.4-0.9,0.9c0,0.5,0.4,0.9,0.9,0.9c0.5,0,0.9-0.4,0.9-0.9C442.4,482.1,442.1,481.7,441.5,481.7
												 M435.4,484.4v-1h-2.3V479h-1v5.4H435.4z M437.5,484.5c-1.1,0-1.9-0.7-1.9-1.8c0-1,0.7-1.9,1.9-1.9
												c0.9,0,1.7,0.7,1.7,1.8c0,0.1,0,0.2,0,0.4h-2.6c0.1,0.4,0.4,0.7,0.9,0.7c0.4,0,0.7-0.1,1-0.4l0.6,0.6
												C438.7,484.3,438.1,484.5,437.5,484.5 M437.4,481.6c-0.4,0-0.7,0.2-0.8,0.6h1.7C438.2,481.9,437.9,481.6,437.4,481.6
												 M453.8,484.5c-1.1,0-1.9-0.7-1.9-1.8c0-1,0.7-1.9,1.9-1.9c0.9,0,1.7,0.7,1.7,1.8c0,0.1,0,0.2,0,0.4h-2.6
												c0.1,0.4,0.4,0.7,0.9,0.7c0.4,0,0.7-0.1,1-0.4l0.6,0.6C454.9,484.3,454.4,484.5,453.8,484.5 M453.7,481.6
												c-0.4,0-0.7,0.2-0.8,0.6h1.7C454.4,481.9,454.1,481.6,453.7,481.6 M445.7,481.7c-0.5,0-0.9,0.4-0.9,0.9
												c0,0.5,0.4,0.9,0.9,0.9c0.5,0,0.9-0.4,0.9-0.9C446.7,482.1,446.2,481.7,445.7,481.7 M446.6,481.3l0.1-0.4h0.9v3.4
												c0,0.7-0.2,1.1-0.6,1.5c-0.3,0.2-0.8,0.4-1.3,0.4c-0.7,0-1.3-0.2-1.7-0.7l0.6-0.7c0.3,0.2,0.6,0.5,1.1,0.5
												c0.7,0,1-0.4,1-0.9v-0.2c-0.3,0.3-0.6,0.4-1,0.4c-1,0-1.8-0.8-1.8-1.9s0.8-1.8,1.8-1.8C446,480.8,446.4,481,446.6,481.3"
												/>
										</g>
									</g>
								</g>
							</g>
						</g>
					</g>
				</g>
			</g>
		</g>
	</g>
</g>
</svg>
